<svg width="224" height="26" viewBox="0 0 224 26" fill="none" xmlns="http://www.w3.org/2000/svg">
<path fill-rule="evenodd" clip-rule="evenodd" d="M35.4617 0.930234C32.8446 2.09871 29.8222 5.2692 28.8356 7.88073C28.4248 8.96776 28.0885 11.0807 28.0885 12.575C28.0885 14.0693 28.4248 16.1823 28.8356 17.2693C29.8517 19.9595 32.8818 23.0787 35.6148 24.2479C38.312 25.4023 42.6903 25.5006 45.4226 24.4677C47.8446 23.5527 51.0474 20.5978 52.3774 18.0523C53.5494 15.8087 53.6729 10.6636 52.621 7.88073C51.6049 5.19056 48.5748 2.07133 45.8418 0.902145C43.0049 -0.31198 38.2151 -0.298637 35.4617 0.930234ZM155.189 1.19777C153.606 2.07414 152.379 3.47997 151.742 5.14913C150.871 7.43412 150.889 8.02398 151.897 10.1369C152.735 11.8946 154.181 13.1094 157.322 14.695C159.714 15.9021 161.477 17.2286 161.317 17.6998C160.991 18.6625 155.015 18.8402 152.556 17.961C151.067 17.4287 150.976 17.579 150.976 20.5704C150.976 23.6398 151.062 23.7683 153.609 24.4754C159.858 26.2113 166.517 24.6404 168.335 21.0016C170.549 16.5713 168.447 12.6902 162.384 10.0084C160.193 9.04008 158.713 7.9678 158.876 7.46923C159.249 6.33586 164.568 5.96369 166.398 6.94328C167.739 7.66094 167.829 7.51066 167.829 4.56559C167.829 2.83674 167.48 1.2069 167.053 0.942872C166.626 0.679543 164.336 0.32282 161.962 0.150778C158.588 -0.0935918 157.11 0.134625 155.189 1.19777ZM0 12.575V24.5126H5.26659C9.37383 24.5126 10.5332 24.2907 10.5332 23.5049C10.5332 21.4545 9.10699 18.8556 6.89783 16.8817C4.77153 14.9822 4.66897 14.6817 5.29745 12.1867C5.66681 10.7212 6.4428 9.37925 7.02212 9.2051C7.8725 8.94949 7.90621 9.06817 7.19767 9.81883C5.54186 11.5737 6.18711 13.7625 8.8176 15.3143C10.1918 16.1254 11.4925 16.7883 11.7087 16.7883C11.9243 16.7883 11.9545 16.0187 11.7747 15.0784C11.3506 12.8594 12.1904 11.5498 13.6727 12.1193C14.4641 12.4226 14.7767 13.2014 14.6292 14.5033C14.3947 16.5776 15.125 16.7426 18.0286 15.2736C19.7196 14.4183 20.6513 11.778 19.994 9.70648C19.7595 8.96705 19.8698 8.36174 20.2399 8.36174C20.6099 8.36174 21.0671 9.54708 21.256 10.995C21.5958 13.6038 20.5152 16.2932 18.504 17.8416C18.0027 18.2278 17.1242 19.8864 16.5519 21.5282L15.5112 24.5126H20.7461H25.9818V12.5385V0.563677L22.3072 0.776448C18.7414 0.982196 18.5602 1.09595 16.1629 4.64985C14.8048 6.66309 13.3771 8.32102 12.9909 8.33295C12.6047 8.34489 11.1827 6.61956 9.83097 4.49958L7.37323 0.644435L3.68661 0.640921L0 0.637412V12.575ZM52.9397 1.63947C52.7276 2.19071 52.6588 3.37604 52.7859 4.27277C52.9804 5.64559 53.4903 5.93841 56.0014 6.11958L58.9858 6.33586V15.4239V24.5126H62.4758H65.9658L66.1624 15.5594L66.359 6.60621L69.3434 6.39064C72.3131 6.17506 72.3278 6.16101 72.3278 3.40623V0.637412H62.8262C55.243 0.637412 53.2466 0.83965 52.9397 1.63947ZM74.4345 12.575V24.5899L77.77 24.3757L81.1055 24.1615V12.575V0.988518L77.77 0.774343L74.4345 0.560168V12.575ZM83.8567 1.82766C84.0843 2.52496 86.1052 7.83508 88.3481 13.6283L92.4266 24.1615L95.9579 24.3701L99.49 24.5779L103.059 15.2413C105.023 10.106 107.132 4.71937 107.745 3.27071L108.862 0.637412H105.076H101.291L99.0062 6.97277C97.75 10.4564 96.4742 13.4605 96.1715 13.648C95.8682 13.8355 95.0648 12.4851 94.3858 10.6481C90.4724 0.0629996 91.1732 1.01309 87.101 0.774343C83.8428 0.583341 83.4888 0.698504 83.8567 1.82766ZM110.95 12.575V24.5126H119.376H127.803V21.7038V18.8949H122.887C118.112 18.8949 117.972 18.8451 117.972 17.1394C117.972 15.5011 118.205 15.3839 121.483 15.3839H124.994V12.575V9.76617H121.483C118.205 9.76617 117.972 9.6489 117.972 8.01064C117.972 6.30497 118.112 6.25511 122.887 6.25511H127.803V3.44626V0.637412H119.376H110.95V12.575ZM129.909 12.575V24.5126H133.031H136.152L136.366 21.1834C136.668 16.4856 138.288 16.4028 140.43 20.9756C142.084 24.5063 142.093 24.5126 145.478 24.5126C147.343 24.5126 148.869 24.205 148.869 23.8294C148.869 23.453 148.187 21.7417 147.353 20.0255L145.837 16.9049L147.704 14.6859C149.183 12.9282 149.571 11.7345 149.571 8.93966C149.571 5.86468 149.265 5.10629 147.184 3.02493L144.796 0.637412H137.353H129.909V12.575ZM171.34 12.575V24.5126H174.851H178.362V12.575V0.637412H174.851H171.34V12.575ZM179.766 3.40623C179.766 6.16101 179.781 6.17506 182.751 6.39064L185.735 6.60621L185.932 15.5594L186.128 24.5126H189.618H193.108V15.3839V6.25511H196.268H199.428V3.44626V0.637412H189.597H179.766V3.40623ZM200.833 1.08051C200.833 1.32487 202.492 4.40548 204.519 7.92707C207.765 13.5651 208.248 14.9183 208.557 19.246L208.908 24.1615L212.244 24.3757L215.579 24.5899L215.585 20.1624C215.59 16.0074 215.849 15.3024 219.792 8.71285C222.103 4.85068 223.996 1.45338 224 1.16407C224.003 0.874759 222.449 0.637412 220.546 0.637412C217.089 0.637412 217.085 0.639518 214.877 4.49958C213.661 6.62377 212.555 8.36174 212.419 8.36174C212.283 8.36174 211.177 6.62377 209.961 4.49958C207.753 0.639518 207.749 0.637412 204.292 0.637412C202.389 0.637412 200.833 0.836838 200.833 1.08051ZM141.438 6.68135C142.826 7.21363 142.889 10.014 141.538 11.1355C140.982 11.5968 139.639 11.8721 138.554 11.7478C137.108 11.5821 136.518 11.0856 136.349 9.89046C136.222 8.99374 136.291 7.8084 136.503 7.25717C136.898 6.22702 139.471 5.92647 141.438 6.68135ZM44.8903 8.80765C45.6908 9.82516 46.346 11.5203 46.346 12.575C46.346 13.6297 45.6908 15.3249 44.8903 16.3424C43.7682 17.77 42.816 18.1927 40.7283 18.1927C38.6406 18.1927 37.6884 17.77 36.5663 16.3424C35.7658 15.3249 35.1106 13.6297 35.1106 12.575C35.1106 11.5203 35.7658 9.82516 36.5663 8.80765C37.6884 7.38005 38.6406 6.95732 40.7283 6.95732C42.816 6.95732 43.7682 7.38005 44.8903 8.80765Z" fill="#F4F4F4"/>
</svg>
