<svg width="14" height="13" viewBox="0 0 14 13" fill="none" xmlns="http://www.w3.org/2000/svg">
<path fill-rule="evenodd" clip-rule="evenodd" d="M5.22094 4.37824H7.55424V5.54049C7.89035 4.87204 8.7523 4.27143 10.0471 4.27143C12.5293 4.27143 13.1186 5.60206 13.1186 8.04342V12.5649H10.6056V8.59941C10.6056 7.20911 10.2695 6.42506 9.41384 6.42506C8.22709 6.42506 7.73392 7.27005 7.73392 8.59878V12.5649H5.22094V4.37824ZM0.91181 12.4581H3.42479V4.27143H0.91181V12.4581ZM3.78477 1.60202C3.78487 1.81266 3.74309 2.02121 3.66188 2.21556C3.58067 2.40991 3.46164 2.58618 3.3117 2.73412C3.00789 3.03607 2.59664 3.20509 2.1683 3.20405C1.74071 3.20376 1.33042 3.03517 1.02615 2.73475C0.876761 2.5863 0.758133 2.40984 0.677063 2.21546C0.595993 2.02109 0.554075 1.81263 0.553711 1.60202C0.553711 1.1767 0.723337 0.7696 1.02678 0.469299C1.33078 0.168469 1.74124 -0.000187977 2.16893 1.57227e-07C2.59739 1.57227e-07 3.00826 0.168998 3.3117 0.469299C3.61452 0.7696 3.78477 1.1767 3.78477 1.60202Z" fill="white"/>
</svg>
