<svg width="16" height="15" viewBox="0 0 16 15" fill="none" xmlns="http://www.w3.org/2000/svg">
<path d="M7.92916 4.9038C6.57818 4.9038 5.47569 6.0063 5.47569 7.35727C5.47569 8.70824 6.57818 9.81073 7.92916 9.81073C9.28013 9.81073 10.3826 8.70824 10.3826 7.35727C10.3826 6.0063 9.28013 4.9038 7.92916 4.9038ZM15.2877 7.35727C15.2877 6.34128 15.2969 5.33449 15.2399 4.32034C15.1828 3.14238 14.9141 2.09695 14.0527 1.23556C13.1895 0.37234 12.1459 0.105459 10.9679 0.048402C9.95193 -0.00865536 8.94514 0.000547464 7.931 0.000547464C6.91501 0.000547464 5.90822 -0.00865536 4.89407 0.048402C3.71611 0.105459 2.67068 0.374181 1.80929 1.23556C0.946071 2.09879 0.67919 3.14238 0.622132 4.32034C0.565075 5.33633 0.574278 6.34312 0.574278 7.35727C0.574278 8.37142 0.565075 9.38004 0.622132 10.3942C0.67919 11.5721 0.947912 12.6176 1.80929 13.479C2.67252 14.3422 3.71611 14.6091 4.89407 14.6661C5.91006 14.7232 6.91685 14.714 7.931 14.714C8.94698 14.714 9.95377 14.7232 10.9679 14.6661C12.1459 14.6091 13.1913 14.3404 14.0527 13.479C14.9159 12.6157 15.1828 11.5721 15.2399 10.3942C15.2988 9.38004 15.2877 8.37326 15.2877 7.35727ZM7.92916 11.1323C5.84012 11.1323 4.15417 9.4463 4.15417 7.35727C4.15417 5.26823 5.84012 3.58228 7.92916 3.58228C10.0182 3.58228 11.7041 5.26823 11.7041 7.35727C11.7041 9.4463 10.0182 11.1323 7.92916 11.1323ZM11.8588 4.3093C11.371 4.3093 10.9771 3.91542 10.9771 3.42767C10.9771 2.93992 11.371 2.54604 11.8588 2.54604C12.3465 2.54604 12.7404 2.93992 12.7404 3.42767C12.7405 3.54349 12.7178 3.6582 12.6736 3.76523C12.6293 3.87226 12.5644 3.9695 12.4825 4.0514C12.4006 4.1333 12.3033 4.19823 12.1963 4.24249C12.0893 4.28674 11.9746 4.30944 11.8588 4.3093Z" fill="white"/>
</svg>
