<svg width="40" height="40" viewBox="0 0 40 40" fill="none" xmlns="http://www.w3.org/2000/svg">
<path d="M21.5486 14.8396C19.297 14.8396 17.4595 16.6771 17.4595 18.9287C17.4595 21.1804 19.297 23.0178 21.5486 23.0178C23.8002 23.0178 25.6377 21.1804 25.6377 18.9287C25.6377 16.6771 23.8002 14.8396 21.5486 14.8396ZM33.8129 18.9287C33.8129 17.2354 33.8282 15.5574 33.7331 13.8672C33.638 11.9039 33.1901 10.1615 31.7545 8.7259C30.3158 7.28719 28.5765 6.84239 26.6132 6.7473C24.9199 6.6522 23.2419 6.66754 21.5517 6.66754C19.8583 6.66754 18.1804 6.6522 16.4901 6.7473C14.5269 6.84239 12.7845 7.29026 11.3488 8.7259C9.91012 10.1646 9.46532 11.9039 9.37022 13.8672C9.27513 15.5605 9.29046 17.2385 9.29046 18.9287C9.29046 20.619 9.27513 22.3 9.37022 23.9903C9.46532 25.9535 9.91319 27.6959 11.3488 29.1316C12.7875 30.5703 14.5269 31.0151 16.4901 31.1102C18.1834 31.2053 19.8614 31.1899 21.5517 31.1899C23.245 31.1899 24.923 31.2053 26.6132 31.1102C28.5765 31.0151 30.3189 30.5672 31.7545 29.1316C33.1932 27.6929 33.638 25.9535 33.7331 23.9903C33.8313 22.3 33.8129 20.6221 33.8129 18.9287ZM21.5486 25.2204C18.0669 25.2204 15.2569 22.4105 15.2569 18.9287C15.2569 15.447 18.0669 12.6371 21.5486 12.6371C25.0303 12.6371 27.8402 15.447 27.8402 18.9287C27.8402 22.4105 25.0303 25.2204 21.5486 25.2204ZM28.0979 13.8488C27.285 13.8488 26.6285 13.1923 26.6285 12.3794C26.6285 11.5665 27.285 10.91 28.0979 10.91C28.9108 10.91 29.5673 11.5665 29.5673 12.3794C29.5675 12.5724 29.5297 12.7636 29.4559 12.942C29.3822 13.1204 29.274 13.2825 29.1375 13.419C29.001 13.5555 28.8389 13.6637 28.6605 13.7374C28.4821 13.8112 28.2909 13.849 28.0979 13.8488Z" fill="white"/>
</svg>
