<svg width="40" height="40" viewBox="0 0 40 40" fill="none" xmlns="http://www.w3.org/2000/svg">
<path fill-rule="evenodd" clip-rule="evenodd" d="M17.0351 15.6304H20.9239V17.5675C21.4841 16.4534 22.9207 15.4524 25.0787 15.4524C29.2157 15.4524 30.1978 17.6701 30.1978 21.7391V29.2749H26.0095V22.6657C26.0095 20.3485 25.4494 19.0418 24.0232 19.0418C22.0453 19.0418 21.2234 20.4501 21.2234 22.6647V29.2749H17.0351V15.6304ZM9.85318 29.0969H14.0415V15.4524H9.85318V29.0969ZM14.6415 11.0034C14.6416 11.3545 14.572 11.7021 14.4366 12.026C14.3013 12.3499 14.1029 12.6437 13.853 12.8902C13.3466 13.3935 12.6612 13.6752 11.9473 13.6735C11.2347 13.673 10.5509 13.392 10.0437 12.8913C9.79477 12.6439 9.59705 12.3498 9.46193 12.0258C9.32682 11.7019 9.25695 11.3544 9.25635 11.0034C9.25635 10.2945 9.53906 9.61604 10.0448 9.11554C10.5515 8.61416 11.2356 8.33306 11.9484 8.33337C12.6625 8.33337 13.3473 8.61504 13.853 9.11554C14.3577 9.61604 14.6415 10.2945 14.6415 11.0034Z" fill="white"/>
</svg>
