<svg width="13" height="15" viewBox="0 0 13 15" fill="none" xmlns="http://www.w3.org/2000/svg">
<path fill-rule="evenodd" clip-rule="evenodd" d="M9.11398 0.601913C9.1206 0.619157 9.12617 0.70611 9.12637 0.795164C9.12702 1.0805 9.24367 1.59556 9.37528 1.89426C9.56581 2.3267 9.75732 2.61832 10.0624 2.94059C10.3944 3.29135 10.7619 3.54494 11.2495 3.75978C11.5483 3.89142 11.9811 3.99003 12.3766 4.01661L12.5649 4.02926V5.24515C12.5649 5.9139 12.5592 6.47033 12.5522 6.48164C12.5376 6.50517 12.0632 6.48818 11.8216 6.45548C11.5992 6.42537 11.2548 6.35891 11.0982 6.31588C10.7068 6.20836 10.538 6.15339 10.4295 6.09819C10.4106 6.08856 10.3863 6.08069 10.3756 6.08069C10.3558 6.08069 10.2161 6.0202 10.0179 5.92583C9.92336 5.8808 9.71145 5.76511 9.43323 5.60662C9.38963 5.58179 9.30628 5.52571 9.24799 5.48205C9.18841 5.43739 9.13455 5.41014 9.1249 5.41979C9.11547 5.42923 9.10445 6.68108 9.10038 8.2017C9.09503 10.2149 9.08671 10.9961 9.0698 11.0755C9.05702 11.1354 9.03648 11.238 9.02417 11.3034C9.00293 11.4161 8.9883 11.4766 8.9175 11.7444C8.88902 11.8521 8.83566 12.003 8.77903 12.1359C8.66825 12.3959 8.61785 12.5011 8.53444 12.6463C8.51096 12.6872 8.4732 12.7533 8.45055 12.7934C8.33245 13.0019 8.04295 13.3774 7.8343 13.5927C7.69096 13.7407 7.50944 13.9073 7.40162 13.9901C7.35256 14.0277 7.30796 14.0637 7.30251 14.0701C7.28715 14.088 6.94007 14.3185 6.84361 14.3748C6.74869 14.4302 6.3248 14.6403 6.26193 14.6631C6.24013 14.6711 6.19999 14.6873 6.17274 14.6992C6.01631 14.7675 5.5893 14.8821 5.28081 14.9385C4.94596 14.9997 4.41314 15.0186 4.11716 14.9797C3.57205 14.9081 3.39363 14.8663 2.93207 14.7021C2.707 14.622 2.28338 14.4031 2.04307 14.2428C1.67615 13.9979 1.436 13.7914 1.13719 13.4638C0.955255 13.2643 0.704386 12.9141 0.571369 12.674C0.465686 12.4832 0.315604 12.1651 0.284783 12.0665C0.27626 12.0393 0.249581 11.9635 0.225519 11.898C0.201437 11.8326 0.174759 11.7524 0.166216 11.7197C0.157693 11.687 0.137754 11.6111 0.121917 11.5512C0.10608 11.4912 0.083009 11.3864 0.070641 11.3183C0.0582729 11.2501 0.0370251 11.1387 0.0233885 11.0705C0.00703651 10.9888 -0.00089164 10.768 7.95705e-05 10.4214C0.00156612 9.88829 0.0118729 9.78277 0.0988062 9.41056C0.150142 9.19081 0.22326 8.94549 0.270136 8.83576C0.28179 8.80851 0.298142 8.76837 0.306467 8.74657C0.370567 8.57878 0.544215 8.2262 0.605699 8.13898C0.626094 8.11005 0.642783 8.08057 0.642783 8.07348C0.642783 8.05861 0.778277 7.85662 0.876012 7.7258C0.993291 7.5688 1.06583 7.48088 1.1777 7.36009C1.34477 7.17971 1.35371 7.17102 1.54769 7.00023C1.83987 6.743 2.18041 6.51413 2.5126 6.35174C2.67329 6.27321 2.72918 6.24776 2.89242 6.17884C3.00298 6.13217 3.36673 6.02206 3.53659 5.98385C3.93677 5.89384 4.12065 5.87743 4.62673 5.88653C4.88291 5.89115 5.10813 5.90201 5.1272 5.91065C5.15971 5.92538 5.16189 6.00488 5.16189 7.17178C5.16189 7.85676 5.15521 8.42109 5.14702 8.42589C5.13883 8.43067 5.08762 8.42309 5.03319 8.40908C4.97878 8.39505 4.85391 8.37261 4.7557 8.35921C4.6055 8.3387 4.53944 8.33979 4.33933 8.36605C4.06493 8.40204 3.97748 8.42048 3.85372 8.46838C3.53541 8.59165 3.30117 8.73913 3.08706 8.95113C2.76533 9.26967 2.58675 9.61223 2.48769 10.1008C2.46204 10.2273 2.45948 10.6608 2.4838 10.7584C2.49332 10.7965 2.5128 10.8812 2.52713 10.9467C2.57555 11.168 2.71301 11.4606 2.86699 11.6701C2.91106 11.7301 3.01196 11.8427 3.09123 11.9205C3.23391 12.0605 3.33849 12.1413 3.48219 12.2227C3.65881 12.3227 3.6909 12.3386 3.79426 12.3776C3.89987 12.4174 3.95156 12.4326 4.16081 12.4854C4.30217 12.5211 4.80081 12.515 4.96416 12.4756C5.2841 12.3983 5.52883 12.2921 5.74659 12.1362C5.96054 11.9829 6.20152 11.7287 6.31043 11.5413C6.40539 11.3779 6.4245 11.3397 6.47891 11.2043C6.54241 11.0463 6.55787 10.9901 6.5987 10.7683C6.6239 10.6314 6.62794 9.92419 6.62826 5.59013L6.62861 0.570557H7.86528C8.97468 0.570557 9.10318 0.573787 9.11398 0.601913Z" fill="white"/>
</svg>
