<svg width="305" height="61" viewBox="0 0 305 61" fill="none" xmlns="http://www.w3.org/2000/svg">
<path fill-rule="evenodd" clip-rule="evenodd" d="M19.4599 0.496243C15.8392 1.0589 11.354 2.59438 8.18692 4.35582C5.56095 5.81609 1.65367 8.89609 0.82779 10.1562C0.0854704 11.2891 -0.28186 22.167 0.255382 27.1021C0.694089 31.133 1.50396 35.0388 2.25115 36.7296C2.51786 37.333 2.73616 37.9768 2.73616 38.1599C2.73616 38.7832 5.23157 43.2841 6.83599 45.5556C9.64441 49.5315 15.349 54.7556 22.1479 59.5782C23.1538 60.2916 24.1628 60.8755 24.3905 60.8755C25.1395 60.8755 34.0748 53.874 37.004 50.9918C42.0297 46.0473 44.4868 42.2068 46.7207 35.8066C48.2534 31.4153 48.9898 23.0169 48.5326 15.1365C48.2743 10.6788 48.2673 10.6506 47.0884 9.34559C44.6191 6.61237 38.0663 2.72425 33.8983 1.51954C31.414 0.801249 25.7596 -0.0486589 23.8011 0.00217544C23.0351 0.0216735 21.0814 0.24416 19.4599 0.496243ZM33.6413 4.44321C35.415 5.0473 37.8435 6.10682 39.0381 6.79726C41.3326 8.12382 44.8579 10.8368 45.3061 11.6209C45.4526 11.8769 45.672 14.5018 45.7939 17.454C46.1128 25.1864 45.1988 32.3979 43.3134 37.0252C41.7073 40.9673 39.474 44.3997 36.4543 47.5681C33.1218 51.0649 25.308 57.3937 24.3233 57.3937C23.277 57.3937 15.0328 50.6453 11.5573 46.9438C8.73844 43.9418 6.16226 39.5425 4.91612 35.6022C4.31551 33.7039 3.64178 31.3673 3.4186 30.4098C2.88693 28.1282 2.57287 18.6744 2.89842 14.7626C3.14528 11.801 3.20447 11.6359 4.42554 10.5019C7.34433 7.79096 12.566 4.93554 16.3152 3.99998C19.7737 3.13684 19.9707 3.12013 25.3679 3.23642C29.9607 3.3353 30.7076 3.44428 33.6413 4.44321ZM21.2768 10.5378C20.8461 10.7383 20.4933 11.1398 20.493 11.4294C20.4927 12.2898 22.0379 16.9996 22.3213 17.0024C22.4647 17.0038 22.5824 15.5258 22.5824 13.7177C22.5824 11.9096 22.4647 10.3724 22.3213 10.3017C22.1778 10.2307 21.7075 10.3369 21.2768 10.5378ZM25.0197 10.5346C25.0197 11.2627 24.2175 11.4037 23.6928 10.7683C23.3126 10.308 23.2645 10.9577 23.4066 14.6411C23.5002 17.0752 23.7081 19.3008 23.8683 19.587C24.549 20.8035 24.9295 19.4042 25.1624 14.8287C25.2965 12.1958 25.3191 10.0413 25.2129 10.0413C25.1067 10.0413 25.0197 10.263 25.0197 10.5346ZM26.0782 13.9886L26.0924 17.8753L27.1227 14.9471C27.6895 13.3368 28.1533 11.7651 28.1533 11.4545C28.1533 11.1443 27.6833 10.7129 27.1088 10.496L26.0642 10.1018L26.0782 13.9886ZM29.0258 11.8751C28.9454 12.1112 28.5596 13.2389 28.1683 14.3813C27.7773 15.5237 27.4601 16.5421 27.4636 16.6445C27.4744 16.953 29.5648 13.5189 29.8956 12.6491C30.1237 12.0492 30.07 11.7905 29.687 11.6436C29.4036 11.5346 29.1059 11.639 29.0258 11.8751ZM18.4043 11.9754C18.4043 12.3824 20.6284 16.2893 20.7761 16.1417C20.8617 16.0561 20.6371 15.0415 20.2775 13.8873C19.805 12.3727 19.4533 11.7874 19.0136 11.7853C18.6783 11.7835 18.4043 11.8692 18.4043 11.9754ZM15.6637 12.7915C15.3009 13.0213 15.8361 13.7741 17.8917 15.9258C19.3799 17.4836 20.6465 18.7085 20.7068 18.6486C20.7667 18.5884 20.1083 17.1755 19.243 15.5087C17.9878 13.091 17.5154 12.4796 16.9054 12.4837C16.4851 12.4869 15.9263 12.6254 15.6637 12.7915ZM30.5317 13.2619C29.7588 14.6644 28.153 18.1061 28.1613 18.3419C28.1658 18.4683 29.3444 17.3294 30.7803 15.8113C32.6466 13.8378 33.2646 12.9708 32.9481 12.7703C32.11 12.2379 30.9676 12.4705 30.5317 13.2619ZM13.5994 13.9409C13.3696 14.1707 13.1816 14.5255 13.1816 14.7295C13.1816 15.1087 18.7114 18.7458 19.2876 18.7458C19.4624 18.7458 18.438 17.5706 17.0115 16.1344C15.5851 14.6982 14.3274 13.5231 14.2174 13.5231C14.1074 13.5231 13.8292 13.7111 13.5994 13.9409ZM31.703 16.0366C30.3451 17.4188 29.296 18.6117 29.3716 18.6873C29.6059 18.9219 35.464 15.1118 35.4644 14.7243C35.4651 14.32 34.7597 13.5231 34.4007 13.5231C34.275 13.5231 33.0609 14.6539 31.703 16.0366ZM11.4476 17.3391C11.0608 18.0974 10.7443 18.9216 10.7443 19.1705C10.7443 19.4191 11.0469 19.8119 11.417 20.0427C12.0385 20.4309 12.0761 20.378 11.9142 19.3432C11.8111 18.6845 11.933 17.9641 12.2094 17.5936C12.5998 17.071 12.8452 17.0264 13.6499 17.3325C15.4326 18.0104 15.8121 17.68 14.2261 16.8308C13.3644 16.3694 12.5451 15.9847 12.4051 15.976C12.2655 15.9673 11.8348 16.5808 11.4476 17.3391ZM34.2465 16.8896C33.1556 17.5661 33.0425 17.7162 33.7242 17.5814C34.2029 17.4867 34.9153 17.3085 35.3074 17.1849C35.8463 17.0153 36.1392 17.1831 36.5079 17.8725C36.9013 18.6072 36.9153 18.9982 36.5793 19.8881L36.1625 20.9919L37.0552 20.0991L37.948 19.2064L37.1593 17.5835C36.7259 16.6908 36.2064 15.9749 36.0051 15.993C35.8039 16.0111 35.0125 16.4147 34.2465 16.8896ZM10.6336 21.3178C10.5034 21.6565 10.6482 21.7481 11.1186 21.6252C11.8895 21.4236 12.0274 20.8348 11.3038 20.8348C11.0371 20.8348 10.7356 21.0521 10.6336 21.3178ZM36.8578 20.9664C36.8578 21.0385 37.0928 21.2927 37.3801 21.5312C37.808 21.8863 37.9024 21.8623 37.9024 21.3996C37.9024 21.089 37.6673 20.8348 37.3801 20.8348C37.0928 20.8348 36.8578 20.894 36.8578 20.9664ZM33.0278 22.3752C33.0278 22.5019 33.8415 23.3431 34.8359 24.2446C35.8307 25.146 37.5932 26.7811 38.753 27.8778C39.9131 28.9749 41.0628 29.8757 41.3079 29.8799C41.5534 29.884 41.8539 29.6278 41.9757 29.3102C42.217 28.6814 41.6084 28.094 38.606 26.0575C37.6175 25.3873 36.5963 24.6432 36.3362 24.4037C36.0758 24.1645 35.7631 23.9685 35.6409 23.9685C35.5187 23.9685 34.8808 23.5583 34.2231 23.0566C33.5658 22.5552 33.0278 22.2484 33.0278 22.3752ZM9.52568 22.9239C9.27116 23.3358 9.61203 23.3358 10.5702 22.9239C11.2415 22.6353 11.2391 22.6238 10.5037 22.6001C10.0842 22.5869 9.64406 22.7324 9.52568 22.9239ZM12.4852 22.824C11.3265 23.2526 7.99473 25.4622 7.81959 25.9183C7.71688 26.1864 7.74857 26.4057 7.89028 26.4057C8.10092 26.4057 12.6502 23.2192 13.1527 22.7199C13.3282 22.5454 13.1729 22.5695 12.4852 22.824ZM10.956 25.3943C8.70711 26.9444 6.77819 28.445 6.66921 28.7288C6.56023 29.0129 6.68836 29.4568 6.95367 29.7155C7.36174 30.1128 8.05601 29.5989 11.4407 26.3935C13.6429 24.3079 15.3546 22.5956 15.2449 22.5886C15.1349 22.5817 13.2049 23.8442 10.956 25.3943ZM38.1001 24.639C39.6154 25.7741 40.8995 26.6581 40.9538 26.6038C41.0081 26.5499 40.9521 26.2442 40.8295 25.9249C40.6276 25.3984 36.2248 22.5757 35.6054 22.5757C35.4623 22.5757 36.5848 23.5043 38.1001 24.639ZM37.5542 22.7091C37.5542 22.7826 37.8675 22.9246 38.2505 23.0249C38.6335 23.1248 38.9469 23.0649 38.9469 22.8912C38.9469 22.7178 38.6335 22.5757 38.2505 22.5757C37.8675 22.5757 37.5542 22.636 37.5542 22.7091ZM66.1126 23.7073C66.1168 23.9469 66.4301 24.8257 66.809 25.6603C67.1878 26.4952 67.4977 27.3834 67.4977 27.6341C67.4977 27.8851 67.7184 28.5338 67.9882 29.0759C68.2584 29.618 68.8329 30.9234 69.2654 31.9766C69.6975 33.0298 70.4168 34.7046 70.8635 35.6979C71.3102 36.6917 71.6758 37.6262 71.6758 37.7755C71.6758 37.9246 71.9321 38.7177 72.2454 39.538C72.7729 40.9196 72.9087 41.0293 74.0915 41.0293C75.3171 41.0293 75.3944 40.9558 76.0183 39.2013C76.3762 38.1961 77.0998 36.4333 77.6266 35.2843C78.1537 34.1353 78.6965 32.7252 78.8334 32.1507C78.9702 31.5762 79.2822 30.7144 79.5269 30.2357C80.4468 28.4342 81.4249 26.0488 81.4249 25.6056C81.4249 25.3528 81.655 24.842 81.936 24.4702C82.2173 24.0987 82.4523 23.6767 82.4583 23.5332C82.4645 23.3898 81.8402 23.2721 81.0711 23.2721C79.4733 23.2721 79.4959 23.2366 77.613 28.6689C77.0159 30.3924 76.2972 32.2461 76.0162 32.7882C75.7356 33.3303 75.5058 33.9926 75.5058 34.2596C75.5058 34.5267 75.2151 35.2234 74.8599 35.8076C74.275 36.7693 74.1688 36.8156 73.7391 36.2979C73.2294 35.6837 72.6518 34.2321 71.8113 31.4543C71.5216 30.4968 71.0776 29.2434 70.8249 28.6689C70.5721 28.0944 70.1786 27.0391 69.9506 26.3235C69.7225 25.608 69.3907 24.9329 69.2131 24.8232C69.0356 24.7136 68.8904 24.3198 68.8904 23.9479C68.8904 23.3915 68.6442 23.2721 67.4977 23.2721C66.6115 23.2721 66.1077 23.4305 66.1126 23.7073ZM91.1903 24.8831C90.7982 25.7692 90.4776 26.631 90.4776 26.7981C90.4776 26.9652 90.3592 27.1021 90.214 27.1021C90.0691 27.1021 89.7645 27.6985 89.5371 28.4279C89.3094 29.157 88.566 30.9596 87.8853 32.4334C87.2047 33.9073 86.6476 35.2359 86.6476 35.3863C86.6476 35.5364 86.3342 36.2738 85.9512 37.0252C85.5682 37.7766 85.2548 38.5739 85.2548 38.7971C85.2548 39.0203 85.0198 39.3981 84.7326 39.6366C83.7751 40.4311 84.1177 41.0293 85.5306 41.0293C86.7865 41.0293 86.9014 40.9314 87.8808 39.0272L88.9107 37.0252L92.6544 36.9263C96.4666 36.8257 97.7893 37.1248 97.7893 38.0868C97.7893 38.3699 97.9345 38.8737 98.1121 39.2062C98.2897 39.5387 98.5198 40.0847 98.6236 40.42C98.7621 40.8684 99.1827 41.0293 100.216 41.0293C101.201 41.0293 101.619 40.881 101.619 40.5314C101.619 40.2574 101.149 39.0178 100.575 37.7766C100 36.5353 99.5302 35.3494 99.5302 35.1409C99.5302 34.9326 99.4119 34.762 99.2667 34.762C99.1218 34.762 98.8022 34.0963 98.556 33.2823C98.3099 32.4682 97.7733 31.0974 97.3642 30.2357C96.9547 29.374 96.4283 28.1988 96.1943 27.6243C95.9603 27.0498 95.4154 25.8357 94.9834 24.926C94.2807 23.4462 94.077 23.2721 93.0506 23.2721C92.0203 23.2721 91.8299 23.4371 91.1903 24.8831ZM106.659 23.692C106.561 23.9472 106.523 27.9137 106.574 32.5058L106.668 40.8552L111.462 41.0293C114.099 41.125 116.41 41.1511 116.598 41.0874C116.786 41.0234 116.939 40.5143 116.939 39.9558V38.9402H113.5C111.066 38.9402 109.949 38.8051 109.677 38.4782C109.432 38.1826 109.26 35.3881 109.2 30.7312L109.105 23.4462L107.971 23.3369C107.263 23.2686 106.77 23.402 106.659 23.692ZM121.25 23.7759C121.134 24.0778 121.107 27.1038 121.188 30.5007C121.363 37.7877 121.613 38.6286 124.093 40.2713C125.579 41.2556 126.038 41.3775 128.255 41.3775C130.44 41.3775 130.941 41.249 132.319 40.3361C133.347 39.6554 134.121 38.7853 134.555 37.8239C135.131 36.5472 135.219 35.5002 135.219 29.8994V23.4462H134H132.781L132.565 29.8875C132.445 33.4302 132.328 36.5061 132.304 36.7226C132.279 36.9396 131.76 37.6053 131.148 38.2024C130.199 39.1313 129.781 39.2884 128.262 39.2884C126.71 39.2884 126.322 39.1345 125.194 38.0704C124.244 37.1749 123.895 36.5531 123.873 35.7202C123.856 35.0973 123.805 32.0811 123.758 29.0171L123.674 23.4462L122.568 23.3369C121.808 23.262 121.395 23.3999 121.25 23.7759ZM141.82 23.7056C141.725 23.9535 141.689 27.9137 141.74 32.5058L141.834 40.8552L147.405 41.0293C150.469 41.125 153.18 41.1442 153.43 41.0718C153.693 40.9959 153.839 40.5558 153.778 40.0272L153.672 39.1143L149.516 39.0158C147.182 38.9604 145.159 38.7508 144.902 38.5377C144.427 38.1436 144.276 34.9072 144.665 33.4564C144.867 32.7019 145.022 32.673 148.861 32.673H152.848L152.738 31.7155L152.628 30.758L148.811 30.6584C146.294 30.5926 144.902 30.4147 144.725 30.1361C144.406 29.6347 144.369 27.2497 144.662 26.155C144.86 25.4176 145.063 25.3775 149.097 25.2846L153.324 25.1871V24.3166V23.4462L147.658 23.3504C143.273 23.2763 141.954 23.3567 141.82 23.7056ZM157.676 24.302V25.3319L160.375 25.4336L163.073 25.5353L163.247 33.1952L163.421 40.8552L164.72 40.9628L166.019 41.0704L166.113 33.3028L166.207 25.5353L168.905 25.4336L171.604 25.3319V24.302V23.2721H164.64H157.676V24.302ZM180.249 23.7073C179.953 23.9469 179.509 24.8908 179.265 25.8055C179.02 26.7198 178.684 27.5516 178.519 27.6539C178.354 27.756 178.219 28.1243 178.219 28.4729C178.219 28.821 177.999 29.2883 177.731 29.5111C177.462 29.7336 177.137 30.3349 177.009 30.8471C176.789 31.7249 176.223 33.0883 174.734 36.3288C174.382 37.0948 173.816 38.3483 173.476 39.1143C173.137 39.8803 172.804 40.6073 172.737 40.7298C172.67 40.8528 173.254 41.014 174.035 41.0885C175.171 41.1968 175.547 41.0819 175.92 40.5122C176.177 40.1205 176.496 39.3044 176.629 38.6979C176.762 38.0917 177.079 37.4228 177.333 37.2115C177.628 36.9678 179.237 36.8637 181.747 36.9263L185.697 37.0252L186.148 38.0697C187.31 40.7591 187.399 40.8503 188.982 40.9645C190.33 41.0617 190.468 41.0042 190.232 40.4422C190.087 40.0948 189.891 39.4583 189.798 39.0272C189.704 38.5962 189.495 38.2438 189.334 38.2438C189.173 38.2438 188.85 37.5781 188.617 36.7641C188.385 35.95 188.086 35.1276 187.953 34.9361C187.821 34.7446 186.721 32.2377 185.51 29.3652C184.298 26.4928 183.162 23.9469 182.984 23.7073C182.806 23.4681 182.239 23.2721 181.725 23.2721C181.21 23.2721 180.546 23.4681 180.249 23.7073ZM195.164 23.5043C194.874 23.7944 194.854 39.726 195.143 40.4785C195.278 40.8312 195.779 41.0293 196.536 41.0293H197.717V32.1507V23.2721H196.557C195.918 23.2721 195.291 23.3766 195.164 23.5043ZM204.216 23.5043C204.089 23.6318 203.984 27.6271 203.984 32.3829V41.0293H205.336C206.444 41.0293 206.727 40.8879 206.899 40.2459C207.014 39.8148 207.111 36.8644 207.113 33.6886C207.116 30.5129 207.213 27.8193 207.33 27.703C207.653 27.3789 208.859 28.2493 208.859 28.8068C208.859 29.0776 209.25 29.813 209.729 30.4408C210.208 31.0685 210.6 31.7492 210.6 31.9533C210.6 32.1576 210.737 32.3248 210.906 32.3248C211.074 32.3248 211.42 32.8272 211.674 33.4417C211.929 34.0559 212.614 35.2746 213.196 36.1502C213.779 37.0256 214.718 38.4816 215.282 39.3855C216.27 40.9656 216.372 41.0293 217.943 41.0293C219.004 41.0293 219.642 40.8622 219.761 40.5533C219.861 40.2915 219.917 36.3355 219.885 31.7618L219.826 23.4462L218.695 23.3372L217.563 23.2279V29.5282C217.563 34.9838 217.488 35.8571 217.006 36.0423C216.699 36.1603 216.314 36.0381 216.149 35.7704C215.648 34.9577 214.971 34.0023 214.604 33.5876C214.412 33.3718 214.021 32.7252 213.733 32.1507C213.446 31.5762 212.937 30.8025 212.602 30.431C212.267 30.0599 211.992 29.5742 211.992 29.3517C211.992 29.1295 211.536 28.3165 210.977 27.5457C210.419 26.7748 209.632 25.4977 209.229 24.708C208.498 23.2742 208.494 23.2721 206.472 23.2721C205.359 23.2721 204.344 23.3766 204.216 23.5043ZM226.616 32.1507V41.0293H227.835H229.053L229.058 34.5009C229.062 30.9105 229.21 27.742 229.388 27.4604C229.566 27.1787 229.759 27.022 229.818 27.1122C230.221 27.7365 231.216 30.1824 232.15 32.847C232.754 34.5705 233.479 36.4242 233.762 36.9664C234.045 37.5085 234.276 38.1822 234.276 38.4635C234.276 38.7445 234.515 39.4371 234.807 40.0021C235.166 40.6947 235.603 41.0293 236.152 41.0293C236.832 41.0293 237.139 40.6136 238.036 38.4771C238.625 37.0733 239.213 35.5051 239.342 34.9918C239.47 34.479 239.715 33.9731 239.885 33.8679C240.056 33.7624 240.195 33.3453 240.195 32.9411C240.195 32.5365 240.399 31.9581 240.648 31.6559C240.897 31.3534 241.298 30.3269 241.538 29.375C241.778 28.4227 242.038 27.5808 242.114 27.5039C242.191 27.4269 242.496 27.4569 242.791 27.5704C243.25 27.7462 243.329 28.7518 243.329 34.4031V41.0293H244.547H245.766V32.1507V23.2721H243.542C241.371 23.2721 241.307 23.2989 240.805 24.4037C240.522 25.0259 239.764 27.1021 239.12 29.0171C238.476 30.9321 237.828 32.5511 237.68 32.6148C237.531 32.6789 237.41 33.0922 237.41 33.534C237.41 33.9755 237.116 34.6994 236.757 35.1429L236.104 35.9493L235.419 34.5723C235.042 33.815 234.531 32.447 234.283 31.5323C234.035 30.618 233.697 29.7862 233.532 29.6838C233.366 29.5818 233.231 29.2068 233.231 28.8506C233.231 28.4944 233.011 27.7594 232.741 27.2173C232.204 26.1352 231.661 24.826 231.359 23.8814C231.2 23.3832 230.75 23.2721 228.89 23.2721H226.616V32.1507ZM252.656 30.3227C252.601 34.2004 252.603 38.1961 252.661 39.2013L252.766 41.0293H258.69H264.614L264.504 40.0718L264.393 39.1143L260.135 39.0164C256.516 38.9336 255.832 38.8288 255.58 38.3201C255.337 37.8288 255.278 35.02 255.471 33.1082C255.503 32.7865 256.611 32.673 259.716 32.673H263.918L263.807 31.7155L263.697 30.758L259.627 30.6601L255.557 30.5623L255.449 29.4415C255.39 28.8249 255.396 27.655 255.463 26.8409L255.585 25.3612H259.902H264.219V24.3166V23.2721H258.488H252.757L252.656 30.3227ZM270.487 32.1333V41.0293H271.668C272.467 41.0293 272.924 40.8343 273.081 40.4269C273.208 40.0958 273.28 37.1885 273.241 33.9664C273.2 30.4867 273.31 27.969 273.514 27.7654C273.739 27.5404 274.355 28.1644 275.305 29.5801C276.102 30.7663 276.754 31.9348 276.754 32.1761C276.754 32.4174 276.886 32.667 277.047 32.7311C277.208 32.7948 278.179 34.2572 279.205 35.9807C280.231 37.7042 281.172 39.1926 281.297 39.2884C281.422 39.3841 281.71 39.8148 281.937 40.2459C282.288 40.913 282.633 41.0293 284.258 41.0293H286.167L286.074 32.2377L285.981 23.4462L284.675 23.3383L283.369 23.23V29.4488C283.369 36.6464 283.133 37.365 281.575 34.9079C281.03 34.0483 280.584 33.1938 280.584 33.0089C280.584 32.8241 280.456 32.673 280.3 32.673C280.144 32.673 279.753 32.1636 279.432 31.5414C278.737 30.1974 278.051 29.0843 277.768 28.843C277.656 28.7472 277.115 27.8855 276.566 26.928C276.017 25.9705 275.483 25.1087 275.378 25.013C275.273 24.9172 275.014 24.5255 274.803 24.1425C274.502 23.5973 273.992 23.4236 272.452 23.3417L270.487 23.2373V32.1333ZM290.81 23.7871C290.698 24.0781 290.697 24.5517 290.807 24.8389C290.959 25.2344 291.599 25.3612 293.443 25.3612C295.495 25.3612 295.936 25.4674 296.24 26.0346C296.455 26.436 296.6 29.586 296.6 33.8282C296.6 40.7643 296.619 40.953 297.33 41.139C298.99 41.5728 299.018 41.4464 299.118 33.2475L299.211 25.5353L302.106 25.4339L305 25.3323L304.891 24.3894L304.782 23.4462L297.898 23.3518C291.998 23.2707 290.984 23.333 290.81 23.7871ZM17.7925 25.1C18.1309 25.6122 18.7754 25.9437 19.6542 26.0575C20.6399 26.1853 21.1155 26.4639 21.4373 27.1021C21.743 27.7093 21.8774 27.7936 21.8808 27.3813C21.8916 26.1609 19.4457 24.3166 17.8169 24.3166C17.3336 24.3166 17.3308 24.4016 17.7925 25.1ZM29.4217 24.6746C28.1704 25.0496 27.1056 25.9959 27.1192 26.7208C27.1283 27.1957 27.1815 27.1877 27.4848 26.6669C27.7076 26.2842 28.2609 26.0575 28.9715 26.0575C30.1519 26.0575 30.9388 25.5422 30.9388 24.7693C30.9388 24.2609 30.8252 24.254 29.4217 24.6746ZM11.0054 27.8399C9.33 29.3851 7.96444 30.8304 7.9714 31.0518C7.97837 31.2733 8.38643 31.9244 8.87876 32.4989L9.77358 33.5434L9.1385 32.4108L8.50377 31.2778L10.7554 28.9373C11.9943 27.6501 13.1269 26.5405 13.2724 26.4712C13.5322 26.3476 14.3466 25.0046 14.1512 25.0217C14.0966 25.0266 12.6812 26.2946 11.0054 27.8399ZM34.7687 25.5321C34.7687 25.6979 35.9536 27.0509 37.4017 28.539C39.6861 30.8864 39.9859 31.3363 39.6648 31.9359C39.4615 32.3161 39.2986 32.7551 39.3027 32.9111C39.3139 33.3174 40.6707 31.5274 40.6801 31.0943C40.6843 30.8962 39.865 29.9533 38.8598 28.999C35.7795 26.0746 34.7687 25.2181 34.7687 25.5321ZM14.8441 27.4503C14.6864 28.397 14.8358 28.9565 15.5144 29.9582C15.9945 30.6674 16.9064 31.8425 17.5404 32.5695C18.5383 33.7133 18.7267 33.8077 18.9391 33.2704C19.1177 32.8178 18.6859 32.0762 17.3514 30.5417C16.3434 29.3827 15.4124 27.9388 15.2828 27.3329L15.0475 26.2316L14.8441 27.4503ZM11.5009 29.5519C9.71926 31.5278 9.66808 31.6396 10.1952 32.3923L10.7443 33.1761V32.4195C10.7443 32.0034 10.955 31.5379 11.2123 31.3847C11.7662 31.055 13.8779 28.1727 13.8779 27.7462C13.8779 27.1209 13.2909 27.5665 11.5009 29.5519ZM33.376 27.75C33.376 27.9374 32.5143 29.1003 31.461 30.3342C29.6467 32.4595 29.1644 33.3693 29.8517 33.3693C30.3462 33.3693 34.0724 28.96 34.0724 28.3747C34.0724 28.0805 33.9157 27.7427 33.7242 27.6243C33.5327 27.506 33.376 27.5627 33.376 27.75ZM94.4374 29.9746C94.9635 31.3631 95.5596 32.8366 95.7622 33.2492C95.9649 33.6618 96.0244 34.1708 95.8949 34.3808C95.758 34.6019 94.5673 34.762 93.0576 34.762C90.9734 34.762 90.4124 34.6492 90.238 34.1942C90.1179 33.8822 90.261 33.1378 90.5552 32.5403C90.8494 31.9432 91.301 30.7493 91.5587 29.8875C92.0618 28.2034 92.5221 27.4847 93.1108 27.4635C93.3145 27.4562 93.9116 28.586 94.4374 29.9746ZM182.261 28.0596C182.515 28.3949 182.728 29.0212 182.734 29.4523C182.74 29.8833 182.876 30.2357 183.036 30.2357C183.388 30.2357 184.505 34.1012 184.266 34.4887C184.173 34.6391 182.931 34.762 181.506 34.762C179.688 34.762 178.903 34.6322 178.874 34.3268C178.805 33.6005 178.927 32.8829 179.245 32.1507C179.411 31.7677 179.81 30.7493 180.133 29.8875C180.705 28.3555 181.257 27.4503 181.618 27.4503C181.717 27.4503 182.006 27.7243 182.261 28.0596ZM35.1319 28.4078C35.1402 28.743 35.9219 29.8788 36.869 30.9321C38.4271 32.6646 38.5911 32.7642 38.5907 31.9766C38.5907 31.4164 38.0232 30.517 36.9978 29.4523C36.1214 28.5425 35.3401 27.7984 35.2607 27.7984C35.1817 27.7984 35.1235 28.0725 35.1319 28.4078ZM12.6426 31.1469C11.3609 32.4665 11.3275 32.8658 12.3407 34.762L12.8055 35.6325L12.8195 34.8122C12.8271 34.3609 13.3121 33.3874 13.8971 32.6489C14.7808 31.533 14.8964 31.1859 14.5813 30.5968C14.3723 30.2068 14.1262 29.8875 14.0336 29.8875C13.9413 29.8875 13.3153 30.4544 12.6426 31.1469ZM34.0584 30.61C33.7308 31.2217 33.8621 31.5765 34.9143 32.9275C35.8826 34.1701 36.0695 34.6273 35.7614 34.9988C35.5438 35.2606 35.4665 35.5757 35.5894 35.699C35.878 35.9873 35.9209 35.9204 36.605 34.1141L37.1802 32.5957L36.0615 31.2479C35.4463 30.5066 34.8307 29.8973 34.6939 29.8938C34.557 29.8903 34.2712 30.2127 34.0584 30.61ZM25.8901 31.9171C25.5071 31.9909 24.9911 32.2161 24.7439 32.417C24.4267 32.6747 24.1747 32.6636 23.8909 32.3798C23.3018 31.7907 21.8861 31.8749 21.8861 32.4989C21.8861 32.7861 22.1096 33.0211 22.3829 33.0211C22.6566 33.0211 23.1924 33.4181 23.574 33.9034L24.268 34.7857L25.0987 33.955C25.5559 33.4978 26.1346 33.0556 26.3849 32.9724C27.1206 32.7269 26.6701 31.7666 25.8901 31.9171ZM14.4872 33.1848C14.1519 33.6454 13.8779 34.6033 13.8779 35.3129V36.6032L15.1268 34.9675C16.3222 33.402 16.4942 32.3122 15.5426 32.3356C15.2975 32.3418 14.8225 32.7238 14.4872 33.1848ZM32.4561 32.8505C32.3451 33.1399 32.6633 33.9128 33.1633 34.5681C33.6633 35.2237 34.0786 36.0447 34.086 36.3926C34.0943 36.7724 34.3043 36.5534 34.6121 35.8445C35.0988 34.723 35.08 34.6054 34.2325 33.4943C33.259 32.2179 32.7674 32.0396 32.4561 32.8505ZM16.0325 35.0963C15.2522 36.1513 14.9945 37.8957 15.6188 37.8957C15.8103 37.8957 15.9705 37.6216 15.9747 37.2863C15.9788 36.951 16.2887 36.2853 16.6634 35.8066C17.3691 34.9041 17.5683 34.0657 17.077 34.0657C16.9214 34.0657 16.4513 34.5295 16.0325 35.0963ZM31.1971 34.2718C30.9631 34.5054 32.7138 37.1659 33.1149 37.1861C33.6009 37.2108 33.3795 36.3772 32.5926 35.2213C31.7995 34.0563 31.5693 33.8996 31.1971 34.2718ZM17.5735 36.0778C17.2643 36.6756 17.0115 37.3908 17.0115 37.6669C17.0115 38.1133 17.7041 38.5934 18.3458 38.5913C18.711 38.5903 18.7911 36.1621 18.4461 35.5454C18.188 35.0848 18.0408 35.1746 17.5735 36.0778ZM30.1087 35.8219C30.0171 36.1008 29.8859 36.9033 29.8173 37.6056L29.6926 38.8824L30.7271 38.4604C31.2963 38.2282 31.8057 37.8887 31.859 37.7059C31.9126 37.5231 31.5784 36.9103 31.116 36.3442C30.4945 35.5827 30.2323 35.4466 30.1087 35.8219ZM22.1472 36.41C20.6862 37.0092 20.4366 37.5503 21.6249 37.5423C22.4943 37.5363 22.8763 37.3166 23.5824 36.4159C24.1485 35.6941 23.8947 35.6931 22.1472 36.41ZM25.0883 36.4281C25.2314 37.1701 26.9709 37.8246 27.4709 37.3246C27.7167 37.0788 27.381 36.7902 26.4027 36.4058C25.0768 35.8849 24.9842 35.8867 25.0883 36.4281ZM31.1999 39.2187C30.7615 39.3054 30.5906 39.6745 30.5906 40.5324C30.5906 41.1887 30.7281 41.7256 30.8963 41.7256C31.4687 41.7256 32.0338 40.7253 31.9213 39.9106C31.844 39.3514 31.6194 39.1355 31.1999 39.2187ZM16.6634 39.6139C16.6634 40.3058 17.3597 41.7256 17.6992 41.7256C17.8956 41.7256 18.0561 41.1773 18.0561 40.507C18.0561 39.5206 17.9234 39.2884 17.3597 39.2884C16.9767 39.2884 16.6634 39.435 16.6634 39.6139ZM21.5379 39.8681C21.5379 40.4127 23.3181 41.3775 24.3233 41.3775C25.3285 41.3775 27.1088 40.4127 27.1088 39.8681C27.1088 39.5415 26.3588 39.421 24.3233 39.421C22.2879 39.421 21.5379 39.5415 21.5379 39.8681ZM18.6473 41.2734C18.5286 41.8733 18.6424 42.4408 18.9433 42.7493C19.2124 43.0254 19.5094 43.1737 19.6041 43.0794C19.6985 42.9847 19.8196 42.3736 19.8732 41.7208C19.9446 40.8538 19.8189 40.5025 19.4056 40.4165C19.0212 40.3364 18.7786 40.6108 18.6473 41.2734ZM28.6975 40.6452C28.3793 41.1609 28.9116 43.1556 29.3312 43.0181C29.545 42.9478 29.7689 42.3151 29.8281 41.6118C29.9088 40.6585 29.803 40.3329 29.4134 40.3329C29.1261 40.3329 28.8037 40.4736 28.6975 40.6452ZM20.7127 42.1609C20.3287 43.5936 20.486 44.4825 21.1897 44.8593C21.7767 45.1737 21.8861 45.1239 21.8861 44.5438C21.8861 44.1653 22.0427 43.759 22.2342 43.6406C22.7851 43.3001 22.6392 41.8217 22.0316 41.5888C21.1385 41.2462 20.9341 41.3346 20.7127 42.1609ZM26.2063 41.8573C25.9055 42.6414 26.5862 44.6754 27.1882 44.7914C27.8939 44.9275 28.2766 43.7757 27.9775 42.4143C27.8198 41.6957 27.5412 41.3775 27.0701 41.3775C26.6965 41.3775 26.3076 41.5933 26.2063 41.8573ZM22.7851 44.1946C22.5344 46.0859 22.8175 46.7551 24.0316 47.1402C24.909 47.4187 26.0642 46.4132 26.0642 45.3711C26.0642 44.946 25.9664 44.1086 25.8466 43.5101C25.6492 42.5237 25.5071 42.422 24.3247 42.422H23.0204L22.7851 44.1946Z" fill="#F4F4F4"/>
</svg>
