<svg width="151" height="47" viewBox="0 0 151 47" fill="none" xmlns="http://www.w3.org/2000/svg">
<path fill-rule="evenodd" clip-rule="evenodd" d="M17.6983 0.14456C17.6983 0.223981 17.4715 0.338719 17.1945 0.399619C16.4089 0.572118 15.571 1.0656 14.8658 1.77066C14.1297 2.50696 13.7611 3.16368 13.3992 4.3842C13.1799 5.1238 13.1466 6.40177 13.1477 14.0372C13.1488 22.1105 13.1725 22.9157 13.4357 23.7808C13.9689 25.5338 14.96 26.6865 16.5924 27.4521C17.4054 27.8334 17.6077 27.8596 19.6603 27.8481C21.571 27.8376 21.9527 27.7915 22.586 27.4953C23.6162 27.0134 24.7899 25.9032 25.2919 24.9359C26.1015 23.3754 26.1741 22.4696 26.1741 13.9404C26.1741 4.79575 26.1206 4.31671 24.8861 2.41043C24.2983 1.50289 23.0404 0.634432 21.9755 0.400876C21.695 0.339347 21.4653 0.223981 21.4653 0.14456C21.4653 0.0645101 20.6245 0 19.5818 0C18.5391 0 17.6983 0.0645101 17.6983 0.14456ZM65.2571 0.230104C65.0413 0.34076 64.5822 0.562387 64.2369 0.722643C63.8916 0.882742 63.4083 1.15664 63.1628 1.33102C62.4542 1.83455 61.6646 3.03011 61.3237 4.11627C61.0221 5.07765 61.0112 5.48496 61.0536 14.37L61.0977 23.6225L61.5852 24.6427C62.1749 25.8773 63.2898 26.9731 64.4824 27.4903C65.2473 27.8221 65.5632 27.8597 67.5331 27.8547C69.6241 27.8495 69.771 27.828 70.5687 27.4134C72.5982 26.358 73.5928 24.8033 73.8788 22.2393C74.0946 20.3034 74.0984 7.84642 73.8838 5.84063C73.7625 4.70738 73.6011 4.06934 73.2549 3.35329C72.5084 1.80959 71.232 0.704906 69.8419 0.399619C69.5649 0.338719 69.3381 0.223981 69.3381 0.14456C69.3381 -0.0816195 65.7164 -0.00565002 65.2571 0.230104ZM2.15928 0.47088L0.354241 0.54936L0.314059 13.9523C0.284865 23.7243 0.321907 27.413 0.451085 27.5686C0.593919 27.7408 1.64665 27.7814 5.90623 27.7795C8.95564 27.7781 11.2838 27.7142 11.4199 27.6284C11.5935 27.5187 11.6698 27.1056 11.7104 26.0563C11.7407 25.2735 11.7216 24.4586 11.6682 24.2454L11.5709 23.8579H8.20475C5.03745 23.8579 4.82901 23.84 4.67613 23.5543C4.56846 23.353 4.51368 19.4177 4.51368 11.879C4.51368 1.17563 4.49751 0.504155 4.239 0.450003C4.08785 0.418298 3.15205 0.427716 2.15928 0.47088ZM79.0696 0.47088L76.6367 0.54936L76.5961 13.9694C76.5583 26.4468 76.5743 27.4033 76.8223 27.5857C76.9924 27.7108 77.6402 27.7819 78.6096 27.7819C79.7401 27.7819 80.1779 27.724 80.3171 27.5562C80.4584 27.386 80.4956 25.0729 80.4684 18.1373C80.4487 13.0812 80.4777 8.899 80.533 8.84359C80.6763 8.70044 81.2595 10.0446 81.2636 10.5276C81.2655 10.7496 81.365 11.244 81.4846 11.6263C81.6042 12.0085 81.8233 12.7805 81.9713 13.3416C82.1195 13.9027 82.3289 14.6797 82.4369 15.0681C82.6828 15.9534 83.1181 17.5613 83.4033 18.639C83.7644 20.0031 84.0948 21.2233 84.3278 22.0529C84.4489 22.4845 84.6497 23.2261 84.7738 23.7009C85.7974 27.6166 85.7963 27.6135 86.1843 27.7099C86.3717 27.7565 87.3375 27.7741 88.3302 27.7489L90.1353 27.7034V14.1264V0.54936H88.3302H86.5252L86.4467 8.10965C86.4036 12.2678 86.3186 15.7195 86.2582 15.78C86.1976 15.8405 86.1035 15.6874 86.049 15.4398C85.9944 15.1923 85.8525 14.6718 85.7333 14.2833C85.6144 13.8949 85.3705 12.9767 85.1914 12.2429C84.8661 10.9108 84.7437 10.449 84.089 8.08343C83.898 7.39281 83.6874 6.61586 83.6211 6.35687C83.2906 5.0651 82.6403 2.66691 82.4505 2.04048C82.333 1.652 82.1958 1.14832 82.146 0.921198C82.0961 0.694234 81.9308 0.482338 81.7789 0.450318C81.6268 0.418456 80.4077 0.427716 79.0696 0.47088ZM28.7902 0.575572C28.7326 0.633019 28.6855 6.70501 28.6855 14.0685C28.6855 27.1446 28.6926 27.4608 28.9891 27.6194C29.3157 27.7941 31.9481 27.8452 32.3659 27.6849C32.5946 27.597 32.618 26.7219 32.6093 18.542C32.6042 13.5667 32.602 9.37003 32.6046 9.2159C32.6085 8.9905 32.6673 8.96665 32.9049 9.09378C33.0984 9.19738 33.2387 9.50769 33.3114 9.99285C33.3726 10.4003 33.5651 11.2675 33.7391 11.9198C33.9132 12.5723 34.1485 13.4593 34.2621 13.8909C34.3758 14.3226 34.6186 15.1986 34.8019 15.8374C35.0971 16.8668 35.4545 18.1929 36.1387 20.7972C36.2522 21.2288 36.4633 22.0058 36.6082 22.5237C36.9847 23.8708 37.7942 26.855 37.8965 27.2735C37.9442 27.4686 38.1339 27.6657 38.318 27.7114C38.5019 27.7571 39.4647 27.7741 40.4575 27.7489L42.2625 27.7034L42.3027 14.0821L42.3427 0.460834L40.4977 0.505097L38.6524 0.54936L38.574 8.03117C38.5308 12.1462 38.4442 15.5643 38.3815 15.6271C38.2528 15.7556 38.191 15.6031 37.9643 14.5973C37.7874 13.8117 37.5788 13.0142 36.8564 10.3594C36.5862 9.36658 36.1489 7.74205 35.8848 6.74927C35.6205 5.7565 35.3037 4.57381 35.181 4.12098C35.0582 3.66815 34.8581 2.92652 34.7363 2.4729C34.6143 2.01929 34.4359 1.38329 34.3395 1.05948L34.1643 0.47088H31.5296C30.0804 0.47088 28.8476 0.517968 28.7902 0.575572ZM45.5524 0.667079C45.5113 0.775068 45.4959 6.90231 45.5182 14.2833L45.5587 27.7034L49.6396 27.6938C53.0395 27.6858 53.8683 27.6391 54.6051 27.4132C56.1781 26.9313 57.3078 25.9893 57.9274 24.6427C58.557 23.2748 58.5863 22.8025 58.5863 14.0479C58.5863 5.12003 58.5542 4.64695 57.8519 3.24985C57.4456 2.44135 56.6068 1.54448 55.9714 1.2392C54.3293 0.450003 54.4933 0.47088 49.9434 0.47088C46.6351 0.47088 45.6098 0.516712 45.5524 0.667079ZM93.5482 14.0871L93.5884 27.5465H95.3934H97.1985L97.277 22.0863C97.3434 17.4624 97.3915 16.6032 97.5909 16.4773C98.0056 16.2154 99.6015 16.3025 100.311 16.6255C101.071 16.9718 101.374 17.277 101.723 18.0504C101.923 18.4929 101.983 19.3783 102.028 22.6022C102.071 25.5987 102.141 26.734 102.307 27.1194L102.529 27.634L104.415 27.5902C106.008 27.5532 106.291 27.5097 106.228 27.311C106.187 27.1815 106.113 25.2038 106.063 22.9161C105.971 18.6657 105.87 17.8691 105.247 16.5109C104.957 15.8785 103.803 14.5973 103.524 14.5973C103.455 14.5973 103.398 14.5023 103.398 14.3865C103.398 14.2705 103.744 13.8839 104.167 13.5273C104.965 12.8549 105.469 11.9881 105.691 10.9087C105.762 10.5634 105.82 9.11545 105.82 7.69103C105.82 6.26662 105.762 4.81867 105.691 4.47336C105.62 4.12804 105.428 3.55765 105.264 3.20591C104.942 2.51418 104.17 1.5696 103.926 1.5696C103.843 1.5696 103.695 1.48986 103.598 1.39223C103.5 1.29476 103.045 1.08506 102.585 0.926534C101.859 0.675712 101.212 0.637414 97.6292 0.633019L93.5082 0.62784L93.5482 14.0871ZM109.087 14.0871L109.127 27.5465L114.603 27.5877C118.513 27.6172 120.139 27.5782 120.292 27.4509C120.447 27.3223 120.507 26.845 120.507 25.7391C120.507 24.4854 120.462 24.188 120.259 24.1101C120.122 24.0577 118.5 24.0149 116.654 24.0149C113.497 24.0149 113.288 23.997 113.135 23.7113C112.914 23.2982 112.917 16.2501 113.139 15.8362C113.295 15.5447 113.465 15.5274 116.003 15.5469L118.702 15.5674V13.8057V12.044L116.005 12.0741C113.455 12.1027 113.299 12.0873 113.14 11.7915C112.895 11.3323 112.914 4.51699 113.161 4.26931C113.297 4.13385 114.354 4.08096 116.928 4.08096H120.507V2.3544V0.62784H114.777H109.047L109.087 14.0871ZM126.471 1.13435C126.471 1.41295 126.37 2.17232 126.245 2.82167C125.905 4.59987 125.684 5.93057 125.542 7.06319C125.472 7.62433 125.337 8.47191 125.243 8.94671C124.99 10.2219 124.745 11.7175 124.6 12.8707C124.53 13.4318 124.396 14.2794 124.302 14.7542C124.062 15.971 123.809 17.6158 123.651 18.9921C123.576 19.6396 123.439 20.3682 123.345 20.6112C123.252 20.8542 123.175 21.3839 123.174 21.7884C123.173 22.1929 123.067 22.8705 122.938 23.2943C122.81 23.7181 122.704 24.3602 122.704 24.7212C122.704 25.0822 122.599 25.7243 122.471 26.1481C122.342 26.5719 122.236 27.0798 122.235 27.277C122.234 27.6315 122.252 27.6348 123.999 27.5909L125.765 27.5465L125.864 26.9186C125.919 26.5733 126.042 25.9103 126.139 25.4454C126.235 24.9803 126.315 24.3012 126.315 23.9361C126.315 23.5024 126.427 23.1291 126.64 22.8589L126.965 22.4453H129.389H131.813L132.115 22.9416C132.289 23.2283 132.455 23.8747 132.508 24.4719C132.559 25.0408 132.687 25.9651 132.793 26.5262L132.985 27.5465H134.869H136.752L136.703 26.7617C136.676 26.33 136.581 25.5531 136.492 25.0351C136.186 23.2403 135.881 21.2632 135.754 20.2478C135.684 19.6867 135.547 18.8744 135.451 18.4428C135.259 17.5896 135.017 16.0885 134.793 14.3618C134.715 13.7575 134.576 13.0164 134.485 12.7148C134.394 12.4132 134.32 11.9541 134.321 11.6946C134.322 11.2479 134.04 9.44035 133.672 7.53407C133.471 6.49374 133.097 4.09304 132.904 2.60334C132.827 2.00642 132.719 1.31768 132.666 1.07298L132.568 0.62784H129.52H126.471V1.13435ZM139.185 14.1264V27.6249H144.757H150.329V25.8199V24.0149H146.882C143.634 24.0149 143.425 23.9973 143.272 23.7113C143.164 23.5099 143.109 19.569 143.109 12.0178V0.62784H141.147H139.185V14.1264ZM20.4719 4.09116C21.0499 4.3109 21.458 4.76389 21.6355 5.38231C21.8155 6.01015 21.8196 21.8472 21.6399 22.6201C21.3924 23.6851 20.42 24.2654 19.1894 24.0827C18.4541 23.9736 17.9931 23.6378 17.6393 22.9538C17.4133 22.5168 17.3844 21.5029 17.385 14.0165C17.3855 5.86716 17.3965 5.55418 17.6975 5.06054C18.2929 4.0841 19.4186 3.69075 20.4719 4.09116ZM68.4164 4.14641C68.7076 4.26868 69.087 4.6041 69.2596 4.89197C69.5613 5.39487 69.5753 5.73657 69.6181 13.6976C69.6464 18.9667 69.6045 22.1959 69.5029 22.5733C69.415 22.8995 69.1315 23.3691 68.873 23.6168C68.4648 24.008 68.2821 24.0671 67.4828 24.0671C66.8241 24.0671 66.4456 23.9817 66.1506 23.7664C65.2455 23.1058 65.2571 23.2332 65.2571 14.0217C65.2571 6.09758 65.2754 5.53284 65.5475 5.02021C65.8737 4.40602 66.66 3.94283 67.3962 3.93153C67.6662 3.92745 68.1253 4.02398 68.4164 4.14641ZM100.834 4.41073C101.128 4.59202 101.507 5.01298 101.677 5.34621C101.945 5.87203 101.986 6.27463 101.986 8.39735C101.986 10.5237 101.945 10.9221 101.675 11.4512C101.505 11.7856 101.141 12.219 100.867 12.414C100.486 12.6857 100.088 12.7847 99.1619 12.8382C98.4154 12.8815 97.8249 12.839 97.6155 12.7269C97.2821 12.5485 97.277 12.484 97.277 8.47819C97.277 4.7697 97.3013 4.39629 97.5516 4.25047C97.7026 4.16242 98.3831 4.08833 99.0635 4.08567C100.052 4.0819 100.408 4.14719 100.834 4.41073ZM53.3648 4.6322C54.3963 5.33318 54.4272 5.60677 54.4252 14.0372C54.4238 20.115 54.3822 21.5611 54.1907 22.1927C54.0625 22.6149 53.8747 23.0605 53.7732 23.1828C53.4087 23.622 52.5118 23.8579 51.2069 23.8579C50.1678 23.8579 49.8897 23.8083 49.8134 23.6096C49.683 23.2695 49.6921 4.47336 49.8228 4.34261C49.8803 4.285 50.5703 4.23792 51.356 4.23792C52.6228 4.23792 52.8501 4.28249 53.3648 4.6322ZM129.771 6.74001C129.773 7.04734 129.849 7.58116 129.94 7.92647C130.031 8.27179 130.163 9.08405 130.234 9.73151C130.365 10.9305 130.595 12.4191 130.887 13.9694C130.977 14.4442 131.112 15.3624 131.187 16.0099C131.262 16.6574 131.391 17.501 131.472 17.8848C131.56 18.2979 131.563 18.7317 131.481 18.9488C131.344 19.31 131.311 19.3149 129.338 19.2715L127.335 19.2276L127.345 18.0504C127.357 16.7547 127.619 14.7348 127.971 13.2374C128.096 12.7053 128.198 11.9985 128.198 11.6667C128.198 11.335 128.269 10.8169 128.357 10.5152C128.444 10.2137 128.578 9.25922 128.654 8.39421C128.73 7.52905 128.91 6.5402 129.054 6.19678C129.304 5.60315 129.328 5.58714 129.542 5.87674C129.666 6.04437 129.769 6.43284 129.771 6.74001ZM0.305897 31.9745C0.106715 32.0128 -0.028584 32.1269 0.00516233 32.2281C0.0519364 32.3686 17.8484 32.421 75.0017 32.4491C121.05 32.4719 150.026 32.4298 150.168 32.34C150.295 32.2597 150.342 32.1371 150.273 32.0675C150.144 31.9394 0.971093 31.8468 0.305897 31.9745ZM5.64379 35.5043C5.50425 35.6439 5.45544 37.1507 5.45544 41.3118V46.931H6.22187C6.88409 46.931 7.00133 46.883 7.08311 46.5778C7.13506 46.3835 7.1787 43.9069 7.1798 41.0739C7.18121 37.8193 7.12219 35.8113 7.01954 35.6195C6.90983 35.4145 6.69055 35.316 6.34461 35.316C6.06271 35.316 5.74738 35.4007 5.64379 35.5043ZM9.16769 35.5147C8.95988 35.6666 8.89898 35.8845 8.93634 36.3425L8.98703 36.9641L9.85031 37.0425L10.7136 37.121L10.7977 41.9868C10.844 44.6629 10.8971 46.8703 10.9154 46.8918C10.934 46.9133 11.3022 46.931 11.7338 46.931C12.1655 46.931 12.5337 46.9133 12.5522 46.8918C12.5706 46.8703 12.6236 44.6629 12.6699 41.9868L12.7541 37.121L13.5772 37.0736C14.3143 37.0311 14.4109 36.9838 14.5023 36.62C14.5583 36.3965 14.5395 36.0294 14.4604 35.8041L14.3164 35.3945L11.8831 35.3514C10.0646 35.3193 9.37865 35.3604 9.16769 35.5147ZM16.3645 35.4723C16.3056 35.5676 16.3078 36.315 16.3692 37.1334C16.461 38.3588 16.5327 38.6493 16.7755 38.7793C16.9743 38.8856 17.1689 38.8845 17.3718 38.7758C17.5986 38.6545 17.6988 38.3718 17.7771 37.6324C17.8344 37.0921 17.8576 36.3676 17.8289 36.0223C17.7779 35.4078 17.763 35.3935 17.1241 35.3469C16.7652 35.3207 16.4233 35.3772 16.3645 35.4723ZM21.2299 35.574C20.4216 35.9824 20.1621 36.4952 20.0844 37.8377C20.024 38.8837 20.0654 39.1536 20.3867 39.8041C20.5914 40.2188 21.2599 41.067 21.8719 41.6889C23.02 42.8555 23.5058 43.6331 23.5058 44.3044C23.5058 44.7866 22.9477 45.5184 22.5801 45.5184C22.1629 45.5184 21.6226 44.8502 21.6199 44.3311C21.6162 43.6286 21.4297 43.4499 20.7589 43.5063C19.93 43.576 19.7824 43.8737 20.0182 45.001C20.1632 45.6943 20.3368 46.0321 20.7479 46.4209C21.2702 46.9147 21.3304 46.931 22.632 46.931C23.3716 46.931 23.9767 46.8651 23.9767 46.7846C23.9767 46.704 24.1192 46.5931 24.2933 46.5378C24.8029 46.376 25.2324 45.3445 25.2324 44.282C25.2324 42.929 24.8043 42.0783 23.3748 40.5894C22.1349 39.2982 21.7793 38.7361 21.7793 38.0683C21.7793 37.4833 21.9474 37.1876 22.3712 37.0264C22.9383 36.8107 23.5058 37.2152 23.5058 37.8349C23.5058 38.2011 23.5992 38.3415 23.9255 38.4655C24.1563 38.5533 24.5447 38.5812 24.7888 38.5277C25.1908 38.4393 25.2316 38.3688 25.2248 37.7757C25.215 36.9127 24.808 36.1176 24.1497 35.6748C23.7328 35.3943 23.4072 35.3182 22.6586 35.326C22.1318 35.3315 21.4889 35.4431 21.2299 35.574ZM32.2212 35.779C32.0895 36.0338 31.9821 36.4046 31.9828 36.603C31.9832 36.8016 31.8793 37.5644 31.7517 38.2982C31.6241 39.032 31.4059 40.3387 31.2669 41.202C31.1278 42.0652 30.9198 43.3013 30.8048 43.9488C30.6896 44.5962 30.5491 45.532 30.4924 46.0285L30.3895 46.931H31.1604H31.9316L32.1399 46.0285C32.2544 45.532 32.4156 45.0378 32.4981 44.9298C32.5806 44.8216 32.9807 44.7336 33.3891 44.7336C34.2345 44.7336 34.65 45.0575 34.65 45.7168C34.65 45.9417 34.7189 46.3069 34.803 46.5284C34.9394 46.8869 35.0427 46.931 35.7448 46.931H36.5335V46.3518C36.5335 46.0333 36.4632 45.3799 36.3772 44.8999C36.2415 44.1431 35.7766 41.2365 35.5222 39.5539C35.1456 37.0645 34.973 36.1194 34.8272 35.7476C34.6649 35.334 34.6118 35.316 33.5591 35.316C32.5013 35.316 32.4517 35.3332 32.2212 35.779ZM38.5795 35.6195C38.4768 35.8113 38.4178 37.8193 38.4192 41.0739C38.4203 43.9069 38.4639 46.3835 38.5159 46.5778C38.6076 46.92 38.6713 46.931 40.5543 46.931C41.7455 46.931 42.498 46.8703 42.498 46.774C42.498 46.6877 42.5907 46.6171 42.7041 46.6171C42.9287 46.6171 43.5593 45.9611 43.8714 45.4028C43.9897 45.1911 44.063 44.5058 44.0561 43.6763C44.0445 42.2803 44.0164 42.1925 43.2217 41.0626C42.9291 40.6466 42.9296 40.6361 43.255 40.2899C43.4364 40.0967 43.6628 39.5752 43.758 39.131C43.9779 38.1053 43.7379 36.6636 43.2628 36.1581C42.7436 35.6054 41.664 35.316 40.1211 35.316C38.9182 35.316 38.7212 35.3547 38.5795 35.6195ZM47.0842 35.6602C46.0988 36.269 46.0352 36.5566 45.979 40.6526C45.9511 42.6813 45.9738 44.6465 46.0296 45.0195C46.1046 45.5226 46.29 45.8572 46.7472 46.3145L47.3637 46.931H48.6621C49.8748 46.931 49.9985 46.8998 50.5349 46.4575C51.3737 45.766 51.4823 45.0633 51.4189 40.7311C51.3728 37.5754 51.3288 37.046 51.0699 36.5246C50.6602 35.6997 49.8553 35.3122 48.5864 35.329C47.8861 35.3383 47.4494 35.4345 47.0842 35.6602ZM53.6735 35.5043C53.5354 35.6425 53.4852 36.9463 53.4852 40.3921C53.4852 44.9006 53.499 45.1194 53.8259 45.7737C54.0133 46.149 54.2959 46.497 54.4538 46.5471C54.6117 46.5971 54.7408 46.704 54.7408 46.7846C54.7408 47.0107 57.3807 46.9657 57.6587 46.7348C58.2683 46.2288 58.5222 45.8845 58.6651 45.3699C58.7505 45.0621 58.8204 42.7684 58.8208 40.2524C58.8216 36.9141 58.7714 35.6423 58.6334 35.5043C58.5298 35.4007 58.2054 35.316 57.9124 35.316C57.5361 35.316 57.3594 35.3966 57.3106 35.5907C57.2724 35.7416 57.2261 37.8592 57.2075 40.296L57.1737 44.7267L56.7416 45.1586C56.3217 45.5783 56.2974 45.5832 55.8783 45.3291L55.4472 45.0676L55.3687 40.3429C55.2828 35.1758 55.313 35.3232 54.3406 35.3183C54.0772 35.3171 53.7771 35.4007 53.6735 35.5043ZM60.7144 35.5404C60.6119 35.664 60.5502 36.0347 60.5774 36.3645C60.6237 36.9261 60.6617 36.9667 61.1762 37.0064C61.4783 37.0297 61.8834 37.0838 62.0765 37.1265L62.4273 37.2044L62.4689 42.0284L62.5103 46.8525L63.3344 46.8999C63.7875 46.9261 64.1735 46.9261 64.192 46.8999C64.2104 46.8739 64.2634 44.6629 64.3097 41.9868L64.3939 37.121L65.2028 37.0741C65.9203 37.0325 66.0231 36.9821 66.1116 36.6291C66.2243 36.18 66.087 35.6089 65.8246 35.4361C65.7283 35.3726 64.5811 35.3197 63.2751 35.3183C61.4053 35.3164 60.8612 35.3637 60.7144 35.5404ZM71.0124 35.4207C70.9548 35.4781 70.9077 35.8666 70.9077 36.2839V37.0425H71.6611C72.0755 37.0425 72.4993 37.1273 72.6029 37.2309C72.7411 37.3692 72.7912 38.6854 72.7912 42.1751V46.931H73.6545C74.1293 46.931 74.5308 46.9133 74.5468 46.8918C74.5628 46.8703 74.6159 44.6629 74.6645 41.9868L74.7532 37.121L75.5773 37.0736L76.4013 37.026V36.3594C76.4013 35.9926 76.3165 35.6079 76.2129 35.5043C76.0825 35.3739 75.2701 35.316 73.5708 35.316C72.2211 35.316 71.0698 35.3631 71.0124 35.4207ZM78.2903 35.6195C78.1877 35.8113 78.1286 37.8193 78.1301 41.0739C78.1311 43.9069 78.1748 46.3835 78.2267 46.5778C78.3085 46.883 78.4258 46.931 79.088 46.931C79.5094 46.931 79.8638 46.9133 79.8751 46.8918C79.8866 46.8703 79.9396 45.7577 79.9929 44.4196L80.0899 41.9868L80.8477 41.9384C81.2716 41.9114 81.7037 41.9717 81.8287 42.0753C82.0012 42.2186 82.0518 42.7347 82.0518 44.3476C82.0518 45.4953 82.0947 46.5461 82.1471 46.6827C82.2156 46.8613 82.4534 46.931 82.9936 46.931C83.5339 46.931 83.7717 46.8613 83.8401 46.6827C83.8925 46.5461 83.9354 44.0695 83.9354 41.1787C83.9354 37.8561 83.8756 35.8115 83.7729 35.6195C83.6549 35.399 83.4428 35.316 82.9974 35.316C82.6602 35.316 82.3272 35.4043 82.2573 35.5122C82.1875 35.6202 82.095 36.7325 82.0518 37.9843L81.9734 40.2602H81.0316H80.0899L80.0114 37.9843C79.9682 36.7325 79.8758 35.6202 79.8059 35.5122C79.7361 35.4043 79.403 35.316 79.0658 35.316C78.6204 35.316 78.4083 35.399 78.2903 35.6195ZM86.307 35.5307C86.1796 35.6842 86.1405 37.3309 86.17 41.299L86.2113 46.8525L88.593 46.8958C90.8979 46.9376 90.9783 46.9283 91.08 46.6075C91.1379 46.4251 91.1401 46.0348 91.0849 45.7401L90.9843 45.2044H89.5172C88.324 45.2044 88.0322 45.158 87.9546 44.9561C87.8322 44.637 87.8347 42.7224 87.9583 42.2614C88.043 41.9453 88.151 41.9083 88.9866 41.9083C90.2108 41.9083 90.5277 41.7308 90.5277 41.045C90.5277 40.3428 90.118 40.1124 89.1077 40.2464C88.03 40.3894 87.8594 40.1657 87.8594 38.6102C87.8594 37.7944 87.9259 37.3318 88.0556 37.248C88.1636 37.1781 88.8875 37.0857 89.6644 37.0425L91.077 36.9641L91.1257 36.4612C91.1524 36.1846 91.097 35.8138 91.0025 35.6371C90.8419 35.3373 90.6862 35.316 88.6578 35.316C87.0111 35.316 86.442 35.3679 86.307 35.5307ZM97.9839 35.6855C97.7642 36.0207 97.735 36.6448 97.7631 40.3971C97.788 43.7105 97.7488 44.7788 97.5956 44.9634C97.4856 45.096 97.1947 45.2044 96.9494 45.2044C96.3868 45.2044 96.1131 45.6714 96.2495 46.3981C96.347 46.9178 96.3685 46.931 97.1181 46.931C97.9954 46.931 98.8188 46.5218 99.2653 45.8637C99.5293 45.4747 99.5529 45.0275 99.5529 40.4172V35.3945L98.8951 35.3466C98.3408 35.3064 98.1972 35.3598 97.9839 35.6855ZM103.006 35.574C101.827 36.1698 101.621 37.1554 101.696 41.8298C101.749 45.0921 101.771 45.3146 102.107 45.8554C102.656 46.7398 103.063 46.931 104.4 46.931C105.825 46.931 106.414 46.6461 106.854 45.7434C107.14 45.1585 107.165 44.7748 107.165 41.1368C107.165 36.6497 107.107 36.3649 106.046 35.695C105.569 35.394 105.243 35.318 104.461 35.326C103.913 35.3317 103.268 35.4415 103.006 35.574ZM109.368 35.6195C109.147 36.0326 109.153 44.1597 109.376 45.1958C109.506 45.8059 109.677 46.0957 110.118 46.4593C110.652 46.8995 110.777 46.931 111.988 46.931C112.703 46.931 113.287 46.8651 113.287 46.7846C113.287 46.704 113.429 46.5931 113.603 46.5378C113.778 46.4826 114.078 46.1423 114.271 45.7816C114.606 45.1533 114.623 44.9353 114.671 40.5443C114.705 37.4155 114.666 35.8602 114.548 35.6393C114.425 35.41 114.219 35.316 113.84 35.316C112.842 35.316 112.816 35.4488 112.816 40.5269V45.0403L112.415 45.3032C112.034 45.5524 111.991 45.5498 111.591 45.2509L111.168 44.9356L111.089 40.3221C111.046 37.7845 110.954 35.6202 110.884 35.5122C110.814 35.4043 110.481 35.316 110.144 35.316C109.698 35.316 109.486 35.399 109.368 35.6195ZM117.015 35.4056C116.95 35.4714 116.897 38.0915 116.897 41.2282V46.931H117.665C118.22 46.931 118.459 46.8623 118.528 46.6827C118.581 46.5461 118.623 45.5295 118.623 44.4236C118.623 42.7348 118.663 42.3975 118.872 42.3175C119.324 42.144 119.718 42.2181 120.036 42.5361C120.308 42.8075 120.35 43.0593 120.35 44.3963C120.35 45.2467 120.428 46.1649 120.522 46.4367C120.685 46.9021 120.74 46.931 121.479 46.931H122.263L122.209 44.6847C122.157 42.4996 122.143 42.4247 121.723 41.926C121.486 41.644 121.292 41.3517 121.292 41.2765C121.292 41.2012 121.464 40.9538 121.674 40.7267C121.937 40.4431 122.091 40.0431 122.165 39.4484C122.31 38.286 122.135 36.8951 121.782 36.4147C121.624 36.1989 121.255 35.8817 120.961 35.7098C120.544 35.4649 120.072 35.3853 118.78 35.3416C117.874 35.3109 117.079 35.3397 117.015 35.4056ZM124.526 35.5643C124.474 35.7008 124.431 38.3142 124.431 41.3718V46.931H125.127C125.695 46.931 125.842 46.8709 125.927 46.6019C125.984 46.4207 126.016 45.0258 125.998 43.5019C125.956 40.1106 125.969 39.7107 126.118 39.7115C126.288 39.7123 126.744 40.9147 126.922 41.8298C127.006 42.2614 127.19 43.0031 127.332 43.4779C127.474 43.9527 127.686 44.7298 127.804 45.2049C127.923 45.6799 128.093 46.2625 128.183 46.4998C128.335 46.8984 128.413 46.931 129.214 46.931H130.082V41.3118C130.082 37.1507 130.033 35.6439 129.893 35.5043C129.79 35.4007 129.51 35.316 129.271 35.316C128.539 35.316 128.454 35.7057 128.561 38.5613C128.614 39.9643 128.599 41.1484 128.527 41.1927C128.29 41.3392 127.92 40.7414 127.804 40.0248C127.742 39.6363 127.55 38.7887 127.38 38.1413C127.209 37.4938 126.996 36.6815 126.907 36.3362C126.818 35.9909 126.634 35.6202 126.5 35.5122C126.365 35.4043 125.887 35.316 125.438 35.316C124.838 35.316 124.596 35.3819 124.526 35.5643ZM132.519 35.466C132.444 35.5872 132.403 41.0583 132.434 46.6563C132.436 46.9056 132.653 46.931 134.783 46.931H137.13L137.23 46.3981C137.286 46.1032 137.253 45.7205 137.157 45.541C137.005 45.2572 136.812 45.2109 135.612 45.1713L134.241 45.126V43.5564V41.9868L135.104 41.9461C136.583 41.8764 136.674 41.8287 136.674 41.126C136.674 40.3341 136.316 40.1152 135.26 40.2604C134.6 40.3512 134.479 40.3238 134.332 40.0482C134.099 39.6131 134.114 37.4682 134.351 37.2309C134.467 37.1147 135.037 37.0425 135.839 37.0425C137.113 37.0425 137.141 37.0344 137.243 36.6282C137.3 36.4001 137.282 36.0294 137.203 35.8041L137.059 35.3945L134.838 35.351C133.464 35.3241 132.579 35.3679 132.519 35.466ZM139.05 35.5257C138.873 35.7387 138.918 35.9713 139.554 38.1037C139.689 38.5578 139.91 39.2995 140.045 39.7518C140.18 40.204 140.398 40.9273 140.531 41.3589C140.973 42.8048 141.055 43.3895 141.062 45.1652L141.069 46.931H141.923H142.778L142.827 44.9298C142.872 43.1363 142.939 42.7248 143.477 40.9665C144.703 36.9587 145.02 35.7693 144.925 35.5222C144.839 35.2995 143.937 35.2439 143.625 35.4422C143.519 35.509 143.288 36.0553 143.111 36.6563C142.933 37.2571 142.684 38.0924 142.556 38.5125C142.429 38.9323 142.323 39.3914 142.322 39.5327C142.321 39.6738 142.258 39.8871 142.182 40.0067C142.073 40.1783 142.002 40.145 141.843 39.8498C141.733 39.6438 141.557 39.0869 141.452 38.6121C141.153 37.2533 140.793 35.9955 140.604 35.641C140.474 35.3988 140.276 35.316 139.827 35.316C139.495 35.316 139.145 35.4103 139.05 35.5257ZM49.44 37.4123C49.6779 37.7077 49.7115 38.1657 49.7147 41.1602L49.7181 44.5716L49.2574 45.0842C48.8024 45.5906 48.7914 45.5935 48.3549 45.3322L47.9131 45.0674L47.8696 41.2513C47.8268 37.5013 47.8319 37.4301 48.1661 37.1566C48.5679 36.8278 49.0462 36.9239 49.44 37.4123ZM104.99 37.1857C105.36 37.4859 105.36 37.4859 105.36 41.2021C105.36 44.9185 105.36 44.9185 104.99 45.2184C104.786 45.3834 104.56 45.5184 104.488 45.5184C104.417 45.5184 104.159 45.3481 103.917 45.1398L103.477 44.7613L103.429 41.427C103.377 37.8826 103.467 37.2905 104.09 37.0381C104.557 36.8495 104.579 36.8531 104.99 37.1857ZM41.721 37.2875C41.8329 37.4222 41.9561 37.9159 41.9951 38.3844C42.047 39.0108 41.9957 39.3429 41.8015 39.6394C41.5838 39.9717 41.4353 40.0342 40.9582 39.9945L40.379 39.9463L40.3327 38.7044C40.3073 38.0215 40.3227 37.3682 40.3671 37.2525C40.4788 36.9614 41.4718 36.987 41.721 37.2875ZM120.173 37.2843C120.227 37.3382 120.296 37.9651 120.326 38.6774C120.37 39.7416 120.332 40.0204 120.11 40.2423C119.93 40.4222 119.65 40.4964 119.271 40.4647L118.702 40.4172L118.657 38.9494C118.603 37.227 118.727 36.9674 119.538 37.0989C119.834 37.1469 120.119 37.2303 120.173 37.2843ZM33.7804 39.6716C33.8349 40.3406 33.9468 41.1842 34.0292 41.5462C34.2731 42.617 34.2226 43.129 33.8617 43.2435C33.687 43.299 33.326 43.2964 33.0593 43.2379C32.6027 43.1376 32.5798 43.098 32.6643 42.559C32.7137 42.2443 32.8346 41.3158 32.9331 40.4956C33.111 39.015 33.2785 38.4552 33.5434 38.4552C33.6194 38.4552 33.7259 39.0026 33.7804 39.6716ZM41.7772 41.9568C42.3832 42.3999 42.4316 44.7471 41.8412 45.0629C41.6772 45.1508 41.2811 45.2008 40.961 45.1743L40.379 45.126L40.3335 43.6466C40.3085 42.8329 40.3239 42.0737 40.3679 41.9593C40.4707 41.6912 41.4118 41.6896 41.7772 41.9568Z" fill="#F4F4F4"/>
</svg>
