<svg width="268" height="72" viewBox="0 0 268 72" fill="none" xmlns="http://www.w3.org/2000/svg">
<path fill-rule="evenodd" clip-rule="evenodd" d="M101.313 0.287597C101.188 0.661933 100.793 3.60117 100.6 5.58789C100.458 7.04244 100.399 7.17428 99.7282 7.51525C99.332 7.71657 98.9784 7.90615 98.9423 7.93698C98.9061 7.96758 99.1003 8.67484 99.3741 9.50864L99.8718 11.0249L99.1491 16.6137C98.7515 19.6875 98.4278 22.3166 98.4296 22.456C98.4338 22.7876 101.575 24.2341 101.881 24.0454C102.167 23.8678 106.56 19.3447 107.719 18.0332C108.179 17.5117 108.556 17.0216 108.556 16.9443C108.556 16.7577 106.352 15.6453 105.982 15.6453C105.823 15.6453 105.095 16.2373 104.364 16.9611C103.333 17.981 103.034 18.175 103.034 17.8239C103.033 16.5672 103.826 10.2012 104.013 9.95775C104.132 9.8036 105.109 9.39084 106.184 9.04066C108.134 8.40565 108.138 8.40243 108.024 7.6977C107.961 7.30933 107.744 6.59586 107.542 6.11224C107.189 5.2667 107.142 5.23863 106.313 5.37737C105.838 5.45675 105.22 5.58467 104.939 5.66198C104.436 5.79979 104.43 5.77517 104.582 4.22399C104.857 1.41981 104.911 1.57764 103.38 0.754654C102.62 0.346726 101.866 0.0101234 101.704 0.00644214C101.542 0.00299098 101.366 0.129534 101.313 0.287597ZM112.599 0.517674C112.474 1.12209 111.405 8.96037 111.195 10.8136C111.115 11.5096 110.807 13.8909 110.509 16.1054C110.211 18.3199 109.899 20.6757 109.815 21.3406L109.663 22.5497L111.419 23.3835C112.385 23.8422 113.204 24.1781 113.239 24.1303C113.274 24.0824 113.587 23.163 113.934 22.0874C114.674 19.7972 115.676 17.7498 117.54 14.725C118.993 12.3667 120.166 10.8511 120.378 11.0578C120.616 11.2901 120.07 16.284 119.469 19.3647C119.146 21.0236 118.965 22.4634 119.068 22.5644C119.515 23.0036 122.2 24.1793 122.358 24.0051C122.609 23.7279 123.206 21.0484 123.785 17.6009C124.431 13.7515 124.511 8.67461 123.938 7.80032C123.448 7.05141 120.512 5.72479 119.99 6.01653C119.545 6.2657 117.225 9.0968 116.153 10.6986C115.73 11.3313 115.349 11.8922 115.306 11.9449C115.012 12.3082 115.069 11.2218 115.572 6.88392C115.887 4.17337 116.146 1.87927 116.147 1.78609C116.149 1.63401 113.107 0 112.823 0C112.759 0 112.658 0.233068 112.599 0.517674ZM2.68016 5.53244C1.24724 7.0567 0.0420917 8.39737 0.00205825 8.51172C-0.0752478 8.73213 2.04791 9.89333 2.52785 9.89333C2.68338 9.89333 3.09982 9.61609 3.45345 9.27741C3.80708 8.93851 4.1545 8.71971 4.22559 8.7908C4.29668 8.86166 3.987 11.5531 3.53766 14.7714C2.74159 20.4737 2.54257 22.4464 2.74366 22.6474C2.79796 22.7015 3.51051 23.0618 4.32705 23.4481C5.1436 23.8342 5.88813 24.0737 5.98177 23.9801C6.07518 23.8866 6.41409 21.8953 6.73481 19.5552C7.05554 17.2149 7.62752 13.0742 8.00553 10.3535C8.38378 7.63282 8.6953 5.1443 8.69784 4.82357C8.70198 4.33282 8.46454 4.12276 7.20279 3.50063C6.37796 3.09385 5.60905 2.76093 5.49424 2.76093C5.37943 2.76093 4.11308 4.00818 2.68016 5.53244ZM84.0733 2.95811C84.0063 3.06647 83.8246 4.37216 83.6697 5.85938L83.3879 8.56325L82.6275 8.92585C82.2094 9.1251 81.8673 9.42052 81.8673 9.58227C81.8673 9.74401 82.0792 10.4142 82.3385 11.0716L82.8095 12.2668L82.2214 16.7745C81.8981 19.2538 81.5841 21.5716 81.5238 21.9257C81.4214 22.5271 81.5201 22.6198 83.0411 23.3487C83.9361 23.7776 84.7886 24.0728 84.9358 24.0047C85.2626 23.8537 90.307 18.3834 90.4167 18.0611C90.46 17.9345 89.9437 17.5354 89.2693 17.1741L88.0437 16.5173L87.1259 17.2547C86.6212 17.6603 86.1679 17.9518 86.1187 17.9026C85.9348 17.719 86.8013 11.3822 87.033 11.214C87.1655 11.1178 87.9989 10.8201 88.8847 10.5525C89.7705 10.2849 90.6399 9.9306 90.8166 9.76495C91.0909 9.50841 91.06 9.25556 90.6079 8.04673C90.1018 6.69295 90.0484 6.6352 89.4237 6.76566C89.0639 6.84089 88.45 6.96882 88.0591 7.05026L87.3489 7.19797L87.4264 5.72893L87.5042 4.25965L86.1237 3.51673C84.6802 2.73999 84.2762 2.62979 84.0733 2.95811ZM12.291 5.94635C12.1925 6.1058 11.5464 10.417 10.5447 17.6009C10.2798 19.4991 10.0042 21.3898 9.93197 21.8024C9.80313 22.5393 9.82844 22.5653 11.3451 23.253C12.1943 23.6379 13.0445 23.9216 13.234 23.883C13.4351 23.8422 13.7945 23.141 14.0952 22.2025C14.9845 19.4273 16.9003 15.8125 19.1553 12.6543L20.5517 10.6986L20.6218 11.7926C20.7067 13.1151 20.1115 17.5772 19.5007 20.1983C19.2561 21.2472 19.0562 22.2091 19.0562 22.3361C19.0562 22.601 21.751 23.9276 22.2894 23.9278C22.5306 23.9281 22.8209 23.3853 23.1817 22.26C23.4759 21.3424 24.2136 19.5989 24.8212 18.3855C25.9364 16.1579 28.8505 11.6033 29.5118 11.0543C29.8206 10.7982 29.8698 10.8417 29.8698 11.3697C29.8698 12.7479 29.3542 16.6357 28.7912 19.5037C28.4617 21.183 28.233 22.5936 28.2832 22.6385C28.3333 22.6833 29.099 23.0374 29.9848 23.4253C30.8706 23.8132 31.6609 24.059 31.7412 23.9718C32.0238 23.6644 32.8753 19.231 33.3256 15.7235C33.8379 11.7344 33.8851 9.46884 33.4806 8.28279C33.254 7.61878 32.9436 7.34729 31.7104 6.73529C30.8879 6.3269 29.9858 5.99053 29.7055 5.98754C29.1687 5.98178 27.7418 7.54171 25.9171 10.1292C25.3916 10.8742 24.8895 11.4392 24.8012 11.3847C24.7128 11.3299 24.5888 10.5596 24.5253 9.67246C24.4618 8.78528 24.2725 7.89396 24.1045 7.69149C23.9366 7.48925 23.0722 6.95754 22.1834 6.51004L20.5675 5.69626L19.0552 7.28218C18.2233 8.15464 17.0848 9.56478 16.5251 10.4161C15.9653 11.2676 15.4451 11.964 15.3689 11.964C15.2928 11.964 15.3623 11.0064 15.5233 9.83581C15.79 7.89626 15.781 7.67446 15.4228 7.33418C14.898 6.83583 12.4198 5.73767 12.291 5.94635ZM146.844 6.1716C146.2 6.39408 145.145 6.91567 144.498 7.33073C142.351 8.7082 141.011 10.6086 140.187 13.4434C139.899 14.4325 139.82 15.3726 139.888 16.9997C139.963 18.7676 140.1 19.4655 140.575 20.4769C141.2 21.8088 142.259 23.0236 143.413 23.7325C144.322 24.2907 146.12 24.2771 147.386 23.7026C148.79 23.0653 150.788 21.0802 151.741 19.376C152.192 18.5702 152.763 17.2719 153.012 16.4906C153.385 15.3146 153.445 14.6145 153.36 12.4242C153.279 10.3316 153.148 9.52267 152.73 8.55589C152.248 7.43932 152.066 7.26492 150.632 6.54271C149.768 6.10787 148.826 5.75539 148.538 5.75953C148.25 5.76367 147.488 5.94911 146.844 6.1716ZM163.443 7.03186C162.613 7.73566 161.93 8.38287 161.924 8.46984C161.919 8.55681 161.509 9.0899 161.013 9.65451L160.112 10.6809L160.25 9.03652L160.388 7.39216L158.896 6.6872C158.075 6.29929 157.291 5.98201 157.153 5.98201C157.016 5.98201 156.849 6.16308 156.781 6.38465C156.661 6.78084 154.572 21.8295 154.572 22.3003C154.572 22.6035 157.787 24.241 157.988 24.0401C158.069 23.9589 158.36 22.8228 158.634 21.5155C159.527 17.253 161.199 13.9556 163.815 11.2977L164.81 10.2863L164.879 11.8255C164.917 12.6959 164.792 13.9678 164.591 14.7535C164.395 15.5176 164.235 16.2366 164.235 16.3511C164.235 16.6344 167.423 18.2235 167.677 18.0668C167.788 17.998 168.094 17.0241 168.358 15.9023C168.705 14.4229 168.837 13.0926 168.837 11.0575C168.837 9.51485 168.729 8.05156 168.598 7.80584C168.466 7.56012 167.64 6.99757 166.763 6.5556C165.885 6.11362 165.118 5.75194 165.059 5.75194C165 5.75194 164.273 6.32782 163.443 7.03186ZM171.818 6.35267C171.536 7.09467 170.567 12.3167 170.207 15.039C169.861 17.6499 169.991 21.6526 170.439 22.1921C170.897 22.7443 173.882 24.2136 174.255 24.0705C174.646 23.9205 177.195 20.8241 178.327 19.1254L179.189 17.831L179.176 18.8664C179.17 19.4358 178.927 21.7136 178.636 23.9281C178.346 26.1425 178.151 28.0704 178.202 28.2121C178.331 28.5653 181.329 29.9368 181.521 29.7306C181.606 29.6395 182.2 25.7859 182.84 21.1671C184.561 8.74708 184.683 7.78375 184.572 7.49431C184.489 7.27781 183.65 6.85033 181.252 5.80278C181.172 5.76735 180.875 6.5319 180.593 7.50144C180.053 9.36139 178.05 13.4416 176.539 15.7603C175.272 17.7035 174.358 18.8664 174.095 18.8664C173.956 18.8664 173.925 18.2272 174.012 17.1983C174.236 14.5651 174.813 10.5889 175.176 9.16997C175.359 8.45558 175.509 7.75844 175.509 7.62086C175.509 7.3848 173.865 6.45045 172.612 5.97396C172.119 5.78668 172.014 5.8366 171.818 6.35267ZM37.8185 6.72977C37.7499 7.14091 37.2769 10.5318 36.7673 14.2648C36.2579 17.9978 35.6362 22.5101 35.3861 24.292C35.136 26.074 34.9315 27.7628 34.9315 28.0451C34.9315 28.4548 35.2387 28.6978 36.4537 29.2486C37.2909 29.6282 38.1192 29.8838 38.2943 29.8167C38.4694 29.7495 38.615 29.4064 38.6178 29.0544C38.6206 28.7026 38.9698 26.3956 39.3938 23.9281C40.209 19.1852 40.7225 17.5825 42.2148 15.1262C43.2283 13.4577 46.2778 10.261 46.7128 10.4108C46.93 10.4855 46.9901 10.9747 46.9351 12.2164C46.7699 15.9391 45.4 19.0918 42.6734 22.0253L41.9824 22.7687L43.6784 23.5542C44.6109 23.986 45.5162 24.2851 45.6899 24.2184C46.2182 24.0157 48.2523 21.1653 49.0941 19.448C50.3402 16.9063 50.8547 14.595 50.8878 11.3888C50.9035 9.87032 50.842 8.3594 50.7512 8.03131C50.6258 7.57783 50.2084 7.26078 49.0102 6.70837C48.1432 6.30895 47.2961 5.98201 47.1274 5.98201C46.4745 5.98201 44.5071 7.49961 42.8411 9.28823L41.0992 11.1588L41.2628 9.54821C41.3527 8.66242 41.4404 7.84265 41.4576 7.72646C41.4899 7.50789 38.7114 6.02366 38.2205 5.99697C38.0681 5.98869 37.8873 6.31862 37.8185 6.72977ZM59.0537 6.30274C57.6231 6.81374 56.1745 7.77593 55.2959 8.79885C54.1595 10.1216 52.9728 12.651 52.511 14.7348C52.0868 16.6498 51.9853 21.5375 52.3562 22.1999C52.4818 22.4247 53.3124 22.9456 54.2019 23.3575L55.8191 24.1066L56.7065 23.6975C57.1947 23.4725 58.2153 22.7544 58.9746 22.1019L60.3551 20.9154L60.4701 21.7598C60.5775 22.5487 60.6871 22.6495 62.1434 23.2993C63.0005 23.6814 63.7538 23.9421 63.8173 23.8786C64.1235 23.5724 65.992 10.2704 65.992 8.39714C65.992 7.47407 65.9715 7.45106 64.4921 6.72171C63.2411 6.10487 62.7352 5.98362 61.4435 5.99214C60.5918 5.99766 59.5164 6.13732 59.0537 6.30274ZM74.032 6.31563C72.3235 6.94512 71.3164 7.60728 70.1856 8.84464C69.5427 9.54798 68.7536 10.6671 68.4317 11.3313C67.1124 14.055 66.8039 17.0478 67.5843 19.5547C68.1503 21.3735 69.005 22.5966 70.3179 23.4661C71.2421 24.0783 71.5582 24.1581 73.0579 24.1581C74.939 24.1581 75.9504 23.7725 77.3932 22.5057C78.4444 21.5829 80.0798 19.1919 79.9841 18.7177C79.9443 18.5199 79.2665 18.0657 78.4778 17.7081L77.0442 17.0579L76.5442 17.7896C76.2693 18.192 75.5726 19.0129 74.9956 19.6141C74.1864 20.4573 73.784 20.707 73.2336 20.707C72.2655 20.707 71.3762 19.7365 71.064 18.3397C70.8889 17.5572 70.8889 16.7915 71.0638 15.6977C71.3638 13.8191 71.9024 12.5537 72.8717 11.4496C73.6054 10.6142 75.5165 9.67614 75.8328 9.9964C75.9251 10.0896 76.0003 10.7945 76.0003 11.563V12.9603L77.572 13.6535C78.7822 14.1875 79.1853 14.2795 79.3247 14.0538C79.601 13.6066 80.3449 8.15371 80.1859 7.73981C80.109 7.53964 79.3546 7.06223 78.5091 6.67892C76.8219 5.91391 75.4293 5.80094 74.032 6.31563ZM132.217 6.41111C131.5 6.64717 130.568 7.05441 130.146 7.31623C128.447 8.36976 126.838 10.6093 126.025 13.0502C125.608 14.303 125.548 14.9099 125.634 16.9864C125.753 19.8485 126.179 21.0371 127.66 22.6435C128.91 24.0005 130.199 24.4924 132.061 24.3236C133.204 24.22 133.721 24.0261 134.763 23.311C136.122 22.3773 138.517 19.4606 138.412 18.8664C138.379 18.6765 137.885 18.3011 137.316 18.0319C135.364 17.1092 135.373 17.1076 134.604 18.4702C133.704 20.0651 132.454 21.1671 131.546 21.1671C130.82 21.1671 129.723 20.299 129.723 19.7243C129.723 19.5522 130.616 18.9584 131.708 18.4048C135.032 16.7195 137.326 14.0149 138.329 10.5992C138.531 9.91197 138.696 8.94771 138.696 8.45673C138.696 7.57783 138.672 7.55252 137.143 6.85355C136.289 6.46311 135.124 6.10718 134.555 6.06277C133.951 6.01583 132.976 6.16101 132.217 6.41111ZM61.958 9.42098C62.1375 9.71111 61.4249 14.4571 61.1118 15.0579C60.6339 15.9747 58.546 18.4046 57.4211 19.3532C56.0411 20.5167 55.8398 20.3487 56.0206 18.1839C56.4106 13.515 57.985 10.396 60.3838 9.54108C61.4576 9.15823 61.7804 9.13361 61.958 9.42098ZM149.339 10.9287C149.613 11.7073 149.723 12.5995 149.679 13.6896C149.63 14.9267 149.447 15.6575 148.89 16.8419C148.487 17.6987 147.693 18.8546 147.104 19.4441C146.225 20.323 145.919 20.4925 145.32 20.4334C144.729 20.375 144.496 20.173 144.043 19.3265C143.559 18.4223 143.501 18.0581 143.58 16.4505C143.648 15.0689 143.828 14.2657 144.303 13.2295C145.306 11.0384 146.924 9.59584 148.245 9.71571C148.847 9.77024 148.986 9.92439 149.339 10.9287ZM134.555 10.2476C134.555 10.7925 133.668 12.4299 132.779 13.5265C131.862 14.6562 129.716 16.1899 129.439 15.9128C129.337 15.8107 129.47 15.0254 129.734 14.1679C130.348 12.1824 131.62 10.723 133.148 10.2523C134.522 9.82937 134.555 9.82914 134.555 10.2476ZM122.643 30.3665C120.814 30.6452 119.035 31.6143 118.096 32.8447C117.652 33.4257 117.121 34.4785 116.915 35.1841C116.434 36.8361 116.435 39.7845 116.918 41.442C117.458 43.296 118.903 45.3161 121.058 47.2289C124.143 49.9675 125.738 51.6413 126.284 52.711C126.603 53.3345 126.841 54.2974 126.904 55.2186C126.993 56.5144 126.934 56.8215 126.459 57.5194C125.771 58.5315 124.633 58.872 123.288 58.4689C121.987 58.0791 121.593 57.3634 121.447 55.1233L121.326 53.2629L118.852 53.1976L116.379 53.1322V55.0753C116.379 58.378 117.408 60.7671 119.361 62.0001C119.842 62.3038 120.837 62.7272 121.572 62.9409C123.353 63.4586 126.635 63.3093 128.144 62.6418C130.459 61.6177 131.81 59.7003 132.282 56.7652C132.581 54.9096 132.209 52.5472 131.314 50.617C130.721 49.3399 130.055 48.5675 126.75 45.3253C124.622 43.2373 122.701 41.1758 122.481 40.744C121.953 39.7095 121.77 37.5595 122.12 36.5016C122.272 36.0405 122.618 35.5079 122.89 35.3176C123.463 34.9159 125.398 34.857 126.077 35.2203C126.723 35.5663 127.193 36.814 127.193 38.1855V39.3432H129.752H132.312L132.206 37.4451C132.069 34.9755 131.417 33.4549 129.915 32.1052C129.282 31.536 128.314 30.9415 127.703 30.7471C126.285 30.2954 124.16 30.1358 122.643 30.3665ZM2.72065 43.8056C2.72065 56.3071 2.74481 57.0891 3.17529 58.4825C3.75094 60.3468 4.86935 61.6693 6.58043 62.5095C7.80191 63.1093 8.09756 63.1563 10.6583 63.1563C13.0682 63.1563 13.5723 63.087 14.6219 62.6126C15.2833 62.3135 16.2271 61.632 16.719 61.0984C17.2109 60.5647 17.8597 59.5151 18.1605 58.7662L18.7071 57.4043L18.7092 44.0598L18.711 30.7153H16.1802H13.6493L13.5343 43.9448C13.4075 58.5273 13.4683 57.9678 11.9562 58.4668C10.9777 58.7899 9.49183 58.6005 8.91618 58.0796C8.67368 57.8601 8.37159 57.3077 8.24504 56.8521C8.10447 56.3462 8.01451 51.0772 8.01382 43.3121L8.01243 30.6003H5.36654H2.72065V43.8056ZM23.7136 46.7632L23.7727 62.9262L25.9391 62.9929C27.2989 63.0348 28.1624 62.9678 28.2576 62.8137C28.3414 62.6784 28.3869 59.2836 28.3589 55.2694C28.3108 48.3384 28.4656 40.163 28.6414 40.339C28.7196 40.417 31.6032 50.5186 33.9072 58.7848C34.5068 60.936 35.1121 62.7741 35.252 62.8691C35.3921 62.9644 36.6456 63.0161 38.0375 62.9842L40.5684 62.9262V46.8208V30.7153L38.2101 30.6498L35.8518 30.5842L35.8449 40.0829C35.8405 45.7631 35.7552 49.4409 35.6325 49.2313C35.5196 49.0385 34.3269 44.9489 32.9818 40.1432C31.6368 35.3376 30.4829 31.2245 30.4176 31.0029C30.3118 30.6436 29.942 30.6003 26.9768 30.6003H23.6545L23.7136 46.7632ZM45.801 46.7632L45.8602 62.9262H48.391H50.9219L50.981 46.7632L51.0401 30.6003H48.391H45.7419L45.801 46.7632ZM54.9482 31.0446C54.9482 31.5666 55.3638 34.1649 58.9753 56.2312C59.553 59.7619 60.0801 62.7387 60.1466 62.8459C60.2129 62.9533 61.9716 63.0412 64.0547 63.0412C67.7661 63.0412 67.8468 63.0309 68.0562 62.5235C68.1738 62.2387 68.6429 59.6763 69.0985 56.8291C69.5542 53.9819 70.539 47.9251 71.287 43.3696C72.0347 38.8141 72.756 34.3621 72.8894 33.4763C73.0231 32.5905 73.1915 31.5774 73.2635 31.225L73.3945 30.5844L70.9103 30.6498L68.4262 30.7153L67.5774 36.1222C67.1106 39.0959 66.2457 44.7386 65.6556 48.6614C65.0652 52.5842 64.5349 55.938 64.4764 56.1143C64.4182 56.2905 64.3207 56.3848 64.2597 56.3239C64.1987 56.2629 63.8435 54.2033 63.4705 51.747C63.0973 49.2906 62.218 43.5656 61.516 39.0248C60.8143 34.484 60.24 30.7308 60.24 30.6845C60.24 30.6383 59.0494 30.6003 57.5941 30.6003C55.1332 30.6003 54.9482 30.6314 54.9482 31.0446ZM77.0916 46.7632L77.1507 62.9262H84.3981H91.6456V60.6254V58.3246L87.1365 58.2623L82.6272 58.2002L82.4784 55.6164C82.2688 51.9791 82.2916 50.0515 82.5518 49.3666L82.7761 48.7764H86.3563H89.9366L89.8708 46.5332L89.805 44.2899L86.2441 44.2262C84.2854 44.191 82.5948 44.0741 82.4869 43.9662C82.3788 43.8581 82.3654 41.8421 82.4568 39.4859L82.6229 35.2019H87.1917H91.7606V32.9011V30.6003H84.3965H77.0324L77.0916 46.7632ZM96.4181 46.7451L96.4772 62.9262H99.0081H101.539L101.654 56.369L101.769 49.8118L103.264 49.8299C104.917 49.8502 106.065 50.309 106.533 51.137C106.73 51.4854 106.871 53.2935 106.968 56.7141C107.049 59.5937 107.222 62.0519 107.37 62.4161L107.63 63.0564L110.222 62.9913C112.669 62.9299 112.808 62.9006 112.731 62.466C112.686 62.2129 112.574 59.6246 112.482 56.7141C112.345 52.3668 112.239 51.2376 111.89 50.387C111.275 48.8885 110.943 48.4387 109.938 47.742L109.041 47.1201L110.006 46.3935C110.537 45.9939 111.21 45.1886 111.501 44.604C111.791 44.0191 112.141 42.8294 112.277 41.9597C112.596 39.9256 112.385 36.0982 111.874 34.6421C111.366 33.1944 109.902 31.7199 108.426 31.1691C107.473 30.8134 106.415 30.731 101.825 30.6546L96.359 30.5637L96.4181 46.7451ZM136.732 30.8879C136.671 31.0462 136.649 38.3194 136.681 47.0508L136.741 62.9262L139.123 62.992C140.682 63.035 141.616 62.9658 141.826 62.7914C142.096 62.568 142.148 59.9945 142.148 46.9264C142.148 38.3475 142.085 31.1644 142.008 30.9643C141.892 30.6631 141.435 30.6003 139.355 30.6003C137.556 30.6003 136.81 30.682 136.732 30.8879ZM145.599 32.8939V35.1876L148.417 35.2522L151.236 35.3169L151.351 49.1215L151.466 62.9262H153.997H156.527L156.587 49.064L156.646 35.2019H159.405H162.164V32.9011V30.6003H153.882H145.599V32.8939ZM164.235 30.8725C164.235 31.0223 165.711 35.8106 167.514 41.5136L170.792 51.8825L170.907 57.4043L171.022 62.9262H173.553H176.084L176.199 57.2893L176.314 51.6524L179.593 41.405C181.396 35.7688 182.871 31.0322 182.871 30.8789C182.871 30.6781 182.179 30.6003 180.39 30.6003H177.908L176.899 34.224C174.339 43.411 173.938 44.7464 173.752 44.6925C173.52 44.6256 173.561 44.7558 172.173 39.6884C171.584 37.5371 170.779 34.6124 170.383 33.1887L169.665 30.6003H166.95C165.013 30.6003 164.235 30.6783 164.235 30.8725ZM106.193 35.9542C106.813 36.5738 106.833 36.673 106.908 39.5179C106.955 41.2791 106.881 42.7933 106.723 43.3206C106.337 44.6076 105.406 45.0933 103.322 45.0943L101.654 45.0952V40.1248V35.1547L103.605 35.2357C105.375 35.3093 105.614 35.3758 106.193 35.9542Z" fill="#F4F4F4"/>
<path d="M232.107 71.6454C212.223 71.6235 196.198 55.6163 196.216 35.7962C196.234 15.9762 212.294 -0.0200585 232.164 1.88792e-05C251.984 0.0127954 268.024 16.0474 268 35.809C268.005 40.5214 267.08 45.1884 265.277 49.5424C263.475 53.8963 260.83 57.8515 257.496 61.181C254.161 64.5105 250.201 67.1488 245.845 68.9446C241.488 70.7403 236.819 71.6581 232.107 71.6454ZM202.883 35.8236C202.874 51.9093 215.954 64.9888 232.065 65.0053C248.176 65.0217 261.336 51.9714 261.347 35.9204C261.358 19.7599 248.295 6.65295 232.164 6.6347C216.032 6.61644 202.892 19.6923 202.883 35.8236Z" fill="#F4F4F4"/>
<path d="M240.342 47.7333C241.255 46.702 242.133 45.7639 242.947 44.7709C243.398 44.2234 243.768 44.0554 244.457 44.446C245.824 45.2236 247.249 45.9062 248.667 46.5907C249.164 46.8316 249.198 47.0269 248.832 47.4358C246.848 49.6479 244.878 51.871 242.92 54.1051C242.405 54.691 241.825 54.8571 241.135 54.5267C238.652 53.3257 236.174 52.1211 233.713 50.8763C232.824 50.4273 232.72 49.6132 232.85 48.686C233.339 45.1451 233.781 41.5969 234.263 38.0541C234.362 37.3959 234.289 36.7233 234.053 36.1011C233.551 34.7687 233.129 33.4071 232.625 32.0765C232.423 31.5436 232.545 31.2825 233.08 31.1749C233.109 31.1749 233.137 31.1511 233.166 31.1475C234.967 30.9339 235.44 29.8187 235.595 28.1304C235.925 24.542 236.508 20.9792 236.955 17.3999C237.035 16.7501 237.23 16.7374 237.743 16.9892C239.51 17.8599 241.281 18.7232 243.077 19.5336C243.659 19.7964 243.807 20.1195 243.71 20.7236C243.403 22.7606 243.146 24.8048 242.874 26.8473C242.75 27.7854 242.786 27.8128 243.666 27.5098C246.3 26.5972 248.941 25.7047 251.564 24.772C252.172 24.5548 252.477 24.5895 252.683 25.2739C253.188 26.8929 253.758 28.4936 254.353 30.0816C254.574 30.6711 254.389 30.8646 253.847 31.0507C250.089 32.3284 246.347 33.6517 242.589 34.9293C241.998 35.1319 241.748 35.4112 241.677 36.0646C241.261 39.5234 240.764 42.9749 240.321 46.4301C240.266 46.7969 240.122 47.1839 240.342 47.7333Z" fill="#F4F4F4"/>
<path d="M224.158 24.2388C223.153 25.3723 222.216 26.3999 221.317 27.4567C220.981 27.8509 220.692 27.8966 220.234 27.652C218.791 26.8842 217.331 26.1431 215.854 25.4289C215.33 25.1752 215.255 24.9872 215.671 24.5272C217.64 22.3443 219.587 20.1443 221.512 17.9272C222.047 17.3158 222.651 17.1351 223.372 17.4873C225.85 18.6938 228.329 19.8985 230.786 21.1378C231.496 21.5028 231.75 22.1544 231.64 22.9794C230.26 33.4647 228.892 43.95 227.537 54.4353C227.438 55.1964 227.232 55.2694 226.586 54.9464C224.853 54.0775 223.105 53.2404 221.34 52.4348C220.807 52.1903 220.68 51.9037 220.758 51.316C221.923 42.6413 223.068 33.963 224.193 25.281C224.231 24.989 224.326 24.6915 224.158 24.2388Z" fill="#F4F4F4"/>
<path d="M213.694 44.8585C213.402 44.9059 213.348 44.6905 213.276 44.4934C212.658 42.7229 212.048 40.9488 211.413 39.1838C211.254 38.7403 211.458 38.5906 211.823 38.4647C213.685 37.8295 215.545 37.187 217.398 36.5318C217.799 36.3894 218.005 36.4551 218.148 36.8713C218.75 38.6472 219.371 40.4177 219.993 42.1863C220.106 42.5076 220.042 42.6937 219.705 42.8087C217.757 43.4731 215.815 44.1503 213.864 44.8165C213.813 44.8329 213.755 44.8439 213.694 44.8585Z" fill="#F4F4F4"/>
</svg>
