<svg width="40" height="40" viewBox="0 0 40 40" fill="none" xmlns="http://www.w3.org/2000/svg">
<path d="M18.6722 23.9117C18.0527 27.1551 17.2978 30.2643 15.0589 31.8884C14.3688 26.9867 16.0729 23.3063 16.8655 19.3986C15.5147 17.1256 17.0281 12.5537 19.8746 13.6808C23.3784 15.0658 16.8408 22.1274 21.229 23.0107C25.8116 23.9305 27.6818 15.0611 24.8399 12.1768C20.7356 8.01 12.8907 12.0791 13.8564 18.0442C14.0908 19.5023 15.5971 19.9439 14.4583 21.9567C11.8308 21.3749 11.0464 19.3021 11.1477 16.5391C11.3102 12.0166 15.2097 8.85208 19.1221 8.41279C24.0697 7.85808 28.7135 10.23 29.3553 14.8832C30.0773 20.1371 27.1224 25.8278 21.8308 25.418C20.3964 25.3061 19.7957 24.5948 18.6722 23.9117Z" fill="white"/>
</svg>
