<svg width="40" height="40" viewBox="0 0 40 40" fill="none" xmlns="http://www.w3.org/2000/svg">
<path d="M19.864 6.66663C13.3715 6.66663 8.08936 11.9498 8.08936 18.4423C8.08936 24.9407 13.3715 30.2258 19.864 30.2258C26.3624 30.2258 31.6485 24.9397 31.6485 18.4423C31.6485 11.9498 26.3624 6.66663 19.864 6.66663ZM13.8888 22.7693C15.237 22.3563 16.639 22.1453 18.049 22.143C20.4187 22.143 22.7579 22.7438 24.8144 23.8805C24.9371 23.9473 25.048 24.1672 25.0991 24.442C25.1482 24.7169 25.1285 24.9986 25.048 25.1449C25.0101 25.2144 24.9587 25.2758 24.8969 25.3254C24.8351 25.3749 24.7641 25.4118 24.6879 25.4337C24.6117 25.4556 24.532 25.4622 24.4533 25.453C24.3746 25.4439 24.2985 25.4192 24.2294 25.3805C22.7188 24.5518 21.0572 24.035 19.3432 23.8606C17.6291 23.6863 15.8975 23.8579 14.2511 24.3655C14.1755 24.3899 14.0958 24.399 14.0166 24.3924C13.9375 24.3857 13.8604 24.3634 13.79 24.3267C13.7196 24.2899 13.6571 24.2396 13.6064 24.1785C13.5556 24.1174 13.5175 24.0468 13.4942 23.9708C13.3892 23.6273 13.6061 22.8616 13.8888 22.7693ZM13.3754 18.4305C14.8985 18.0167 16.4698 17.8071 18.048 17.8072C20.8889 17.8072 23.7091 18.4943 26.2054 19.796C26.3811 19.8843 26.5097 20.0355 26.5686 20.22C26.5984 20.3132 26.6092 20.4114 26.6004 20.5089C26.5916 20.6063 26.5635 20.701 26.5175 20.7874C26.2947 21.2232 26.0336 21.5168 25.8697 21.5168C25.7501 21.5162 25.6323 21.4873 25.5261 21.4323C23.2185 20.2276 20.6522 19.6029 18.049 19.6124C16.601 19.6095 15.1593 19.8027 13.7632 20.1866C13.6701 20.2121 13.5728 20.219 13.477 20.2069C13.3812 20.1947 13.2888 20.1639 13.2049 20.116C13.121 20.0682 13.0474 20.0042 12.9883 19.9279C12.9291 19.8516 12.8855 19.7644 12.8601 19.6713C12.7501 19.257 13.0024 18.5326 13.3754 18.4305ZM13.2429 15.5975C13.1324 15.6259 13.0174 15.6321 12.9045 15.6157C12.7916 15.5994 12.6831 15.5609 12.5852 15.5024C12.4872 15.4439 12.4019 15.3666 12.334 15.2749C12.2661 15.1832 12.217 15.079 12.1896 14.9683C12.0689 14.4794 12.3742 13.9121 12.8179 13.8001C14.5294 13.3786 16.2854 13.1647 18.048 13.1631C21.4346 13.1631 24.6799 13.9248 27.6916 15.4277C27.8985 15.5306 28.0561 15.7114 28.1297 15.9305C28.2033 16.1495 28.187 16.3888 28.0842 16.5958C27.9438 16.8785 27.6395 17.1829 27.3038 17.1829C27.1722 17.1824 27.0422 17.1532 26.923 17.0975C24.1691 15.7159 21.129 15.0011 18.048 15.0105C16.443 15.0105 14.8263 15.2078 13.2429 15.5975Z" fill="white"/>
</svg>
