<svg width="15" height="15" viewBox="0 0 15 15" fill="none" xmlns="http://www.w3.org/2000/svg">
<path d="M7.91832 0C4.02281 0 0.853516 3.16989 0.853516 7.0654C0.853516 10.9644 4.02281 14.1355 7.91832 14.1355C11.8174 14.1355 14.989 10.9639 14.989 7.0654C14.989 3.16989 11.8174 0 7.91832 0ZM4.33321 9.66162C5.14212 9.41382 5.98328 9.28719 6.8293 9.28585C8.2511 9.28585 9.65463 9.6463 10.8885 10.3283C10.9622 10.3684 11.0287 10.5003 11.0593 10.6652C11.0888 10.8302 11.077 10.9992 11.0287 11.0869C11.006 11.1287 10.9751 11.1655 10.9381 11.1952C10.901 11.225 10.8583 11.2471 10.8126 11.2602C10.767 11.2734 10.7191 11.2773 10.6719 11.2718C10.6247 11.2664 10.579 11.2516 10.5375 11.2283C9.63119 10.7311 8.63425 10.421 7.60581 10.3164C6.57738 10.2118 5.53841 10.3148 4.55054 10.6193C4.50519 10.634 4.45737 10.6395 4.40988 10.6355C4.36238 10.6315 4.31616 10.6181 4.2739 10.596C4.23164 10.574 4.19418 10.5438 4.16371 10.5071C4.13325 10.4705 4.11038 10.4281 4.09644 10.3825C4.03341 10.1764 4.16358 9.71698 4.33321 9.66162ZM4.02517 7.05833C4.939 6.81006 5.88176 6.6843 6.82871 6.68433C8.53322 6.68433 10.2254 7.09661 11.7231 7.8776C11.8286 7.93061 11.9057 8.02131 11.9411 8.13204C11.9589 8.18795 11.9654 8.24688 11.9601 8.30535C11.9549 8.36381 11.938 8.42064 11.9104 8.47247C11.7767 8.73397 11.6201 8.91008 11.5217 8.91008C11.4499 8.90976 11.3793 8.8924 11.3156 8.85943C9.93098 8.13657 8.3912 7.76178 6.8293 7.76746C5.96052 7.76572 5.0955 7.88162 4.25782 8.11201C4.20193 8.12729 4.14359 8.13141 4.08611 8.12414C4.02864 8.11686 3.97316 8.09834 3.92284 8.06963C3.87253 8.04092 3.82836 8.00257 3.79286 7.95679C3.75736 7.91101 3.73123 7.85868 3.71596 7.8028C3.64999 7.55425 3.80136 7.11958 4.02517 7.05833ZM3.94566 5.35853C3.87936 5.37555 3.81036 5.37926 3.74262 5.36947C3.67488 5.35967 3.60976 5.33655 3.551 5.30145C3.49224 5.26635 3.44102 5.21996 3.40029 5.16496C3.35956 5.10996 3.33012 5.04744 3.31368 4.981C3.24124 4.68769 3.42441 4.34726 3.69063 4.28011C4.71752 4.02719 5.77113 3.89885 6.82871 3.89787C8.86069 3.89787 10.8079 4.35491 12.6148 5.25664C12.739 5.31838 12.8336 5.42688 12.8777 5.55831C12.9219 5.68974 12.9121 5.83333 12.8504 5.95753C12.7662 6.12715 12.5836 6.30974 12.3822 6.30974C12.3032 6.30944 12.2252 6.29196 12.1537 6.25849C10.5013 5.42958 8.6773 5.00066 6.82871 5.00632C5.86573 5.00632 4.89568 5.12471 3.94566 5.35853Z" fill="white"/>
</svg>
