<svg width="40" height="40" viewBox="0 0 40 40" fill="none" xmlns="http://www.w3.org/2000/svg">
<path fill-rule="evenodd" clip-rule="evenodd" d="M25.19 6.71889C25.201 6.74763 25.2103 6.89255 25.2106 7.04097C25.2117 7.51653 25.4061 8.37497 25.6255 8.87279C25.943 9.59354 26.2622 10.0796 26.7706 10.6167C27.324 11.2013 27.9365 11.6239 28.7492 11.982C29.2472 12.2014 29.9685 12.3658 30.6277 12.41L30.9415 12.4311V14.4576C30.9415 15.5722 30.9319 16.4996 30.9203 16.5184C30.8961 16.5576 30.1053 16.5293 29.7027 16.4748C29.3319 16.4247 28.758 16.3139 28.4969 16.2422C27.8447 16.063 27.5633 15.9714 27.3825 15.8794C27.3509 15.8633 27.3105 15.8502 27.2926 15.8502C27.2596 15.8502 27.0268 15.7494 26.6966 15.5921C26.5389 15.517 26.1858 15.3242 25.7221 15.0601C25.6494 15.0187 25.5105 14.9252 25.4133 14.8524C25.314 14.778 25.2243 14.7326 25.2082 14.7487C25.1924 14.7644 25.1741 16.8508 25.1673 19.3852C25.1584 22.7406 25.1445 24.0425 25.1163 24.1748C25.095 24.2748 25.0608 24.4457 25.0403 24.5547C25.0049 24.7426 24.9805 24.8434 24.8625 25.2898C24.815 25.4693 24.7261 25.7207 24.6317 25.9422C24.4471 26.3755 24.3631 26.5508 24.2241 26.7928C24.1849 26.861 24.122 26.9713 24.0842 27.038C23.8874 27.3855 23.4049 28.0114 23.0572 28.3702C22.8183 28.6168 22.5157 28.8946 22.336 29.0325C22.2543 29.0952 22.1799 29.1552 22.1709 29.1658C22.1453 29.1957 21.5668 29.5799 21.406 29.6737C21.2478 29.766 20.5413 30.1162 20.4366 30.1543C20.4002 30.1675 20.3333 30.1945 20.2879 30.2143C20.0272 30.3282 19.3155 30.5191 18.8013 30.6131C18.2433 30.7152 17.3552 30.7466 16.8619 30.6818C15.9534 30.5625 15.656 30.4928 14.8868 30.2191C14.5117 30.0857 13.8056 29.7209 13.4051 29.4536C12.7936 29.0456 12.3933 28.7014 11.8953 28.1553C11.5921 27.8228 11.174 27.2393 10.9523 26.8391C10.7761 26.5211 10.526 25.9909 10.4746 25.8266C10.4604 25.7811 10.416 25.6548 10.3759 25.5458C10.3357 25.4368 10.2913 25.303 10.277 25.2485C10.2628 25.194 10.2296 25.0676 10.2032 24.9677C10.1768 24.8677 10.1383 24.6931 10.1177 24.5795C10.0971 24.4659 10.0617 24.2801 10.039 24.1666C10.0117 24.0303 9.99851 23.6624 10.0001 23.0847C10.0026 22.1962 10.0198 22.0203 10.1647 21.4C10.2502 21.0337 10.3721 20.6248 10.4502 20.442C10.4697 20.3965 10.4969 20.3296 10.5108 20.2933C10.6176 20.0137 10.907 19.426 11.0095 19.2807C11.0435 19.2324 11.0713 19.1833 11.0713 19.1715C11.0713 19.1467 11.2971 18.8101 11.46 18.592C11.6555 18.3304 11.7764 18.1838 11.9628 17.9825C12.2413 17.6819 12.2562 17.6674 12.5795 17.3827C13.0664 16.954 13.634 16.5726 14.1877 16.3019C14.4555 16.171 14.5486 16.1286 14.8207 16.0138C15.005 15.936 15.6112 15.7525 15.8943 15.6888C16.5613 15.5388 16.8677 15.5114 17.7112 15.5266C18.1382 15.5343 18.5136 15.5524 18.5453 15.5668C18.5995 15.5913 18.6031 15.7238 18.6031 17.6687C18.6031 18.8103 18.592 19.7509 18.5784 19.7588C18.5647 19.7668 18.4794 19.7542 18.3887 19.7308C18.298 19.7074 18.0899 19.67 17.9262 19.6477C17.6758 19.6135 17.5657 19.6153 17.2322 19.6591C16.7749 19.7191 16.6291 19.7498 16.4229 19.8297C15.8923 20.0351 15.5019 20.2809 15.1451 20.6343C14.6089 21.1652 14.3113 21.7361 14.1461 22.5504C14.1034 22.7612 14.0991 23.4837 14.1397 23.6463C14.1555 23.7099 14.188 23.8511 14.2119 23.9601C14.2926 24.329 14.5217 24.8166 14.7783 25.1659C14.8518 25.2658 15.0199 25.4536 15.152 25.5832C15.3899 25.8165 15.5641 25.9513 15.8036 26.0868C16.098 26.2535 16.1515 26.2801 16.3238 26.345C16.4998 26.4113 16.5859 26.4366 16.9347 26.5247C17.1703 26.5842 18.0014 26.574 18.2736 26.5083C18.8068 26.3795 19.2147 26.2026 19.5777 25.9426C19.9342 25.6873 20.3359 25.2635 20.5174 24.9512C20.6757 24.6789 20.7075 24.6151 20.7982 24.3896C20.904 24.1263 20.9298 24.0325 20.9978 23.6628C21.0398 23.4346 21.0466 22.256 21.0471 15.0326L21.0477 6.66663H23.1088C24.9578 6.66663 25.172 6.67201 25.19 6.71889Z" fill="white"/>
</svg>
