<svg width="99" height="100" viewBox="0 0 99 100" fill="none" xmlns="http://www.w3.org/2000/svg">
<path fill-rule="evenodd" clip-rule="evenodd" d="M11.5466 0.975289C10.3072 1.37289 9.1566 2.05303 8.99009 2.48704C8.776 3.04436 10.0479 4.66049 13.3316 8.00244L17.9751 12.7289L17.41 14.9742C16.9076 16.969 16.6478 17.2739 15.0798 17.7093C14.1093 17.9788 12.983 18.2006 12.5767 18.2021C12.1709 18.2036 9.87703 16.2321 7.47931 13.8208C4.54612 10.8701 2.81592 9.48068 2.19015 9.57292C0.855604 9.76856 0.0448729 12.4682 0.00166639 16.8603C-0.0415402 21.244 0.746858 23.6583 3.37275 27.1861C6.84626 31.8524 13.4112 34.457 19.0999 33.4259L21.754 32.9447L29.8234 41.0244C36.5529 47.7627 37.7763 49.2016 37.1904 49.688C36.8034 50.0089 34.5504 50.8269 32.1833 51.5056L27.8791 52.7392L22.3856 58.1677C19.3635 61.1533 16.6726 63.9923 16.4046 64.4768C16.0653 65.0904 16.093 65.5686 16.4964 66.0546C16.8148 66.4381 17.3018 66.7517 17.579 66.7517C17.8562 66.7517 20.7243 64.151 23.9522 60.9727L29.821 55.1942L33.7047 54.1276C35.8408 53.5416 38.086 52.6027 38.6943 52.0415L39.8007 51.0216L44.1456 55.3466L48.4911 59.6716L47.5274 60.697C46.9978 61.2611 46.0336 63.5486 45.3846 65.7798L44.2049 69.8373L31.9182 82.1313C25.16 88.8933 18.9087 94.7685 18.0261 95.1869C17.1435 95.6059 15.6682 96.071 14.7477 96.2205C10.9844 96.8312 6.2103 94.2179 4.3199 90.5119C3.13584 88.1909 3.04749 83.8401 4.14027 81.6555C4.56797 80.8011 7.24192 77.7519 10.0824 74.8798C14.3841 70.5305 15.1613 69.5208 14.7322 68.8402C14.4487 68.3906 13.9346 67.929 13.5899 67.8144C12.6296 67.494 2.5625 77.9203 1.43719 80.4006C0.771132 81.8696 0.468203 83.5911 0.460921 85.9538C0.452668 88.6749 0.707053 89.8934 1.70177 91.8892C3.05623 94.6078 4.78886 96.2982 7.91866 97.9551C9.44982 98.7658 10.7674 99.0153 13.5578 99.0241C16.66 99.0333 17.5659 98.8318 19.6776 97.6609C21.3248 96.7477 26.3077 92.1071 34.5319 83.8255L46.9075 71.3636L48.0245 67.2372C48.6391 64.9676 49.4377 62.7898 49.7999 62.3971C50.3698 61.78 50.9412 62.163 54.0385 65.2399C56.9314 68.1134 57.8159 68.7334 58.648 68.4693C59.2141 68.2896 59.6772 67.7741 59.6772 67.3236C59.6772 66.873 51.3951 58.2245 41.2727 48.1044L22.8686 29.7052L19.9136 30.3325C18.2877 30.6771 15.976 30.8247 14.7754 30.6601C10.0892 30.0179 5.72144 26.6788 3.75627 22.2358C3.07856 20.7042 2.87126 19.2823 2.97661 16.8899L3.12031 13.6309L7.14628 17.6171C9.36098 19.8095 11.282 21.6033 11.416 21.6033C12.4859 21.6033 18.3018 19.8959 18.7989 19.4356C19.5131 18.7754 20.8253 14.2169 20.834 12.3673C20.8384 11.4837 19.8301 10.1385 17.2231 7.54853C15.2337 5.57268 13.7171 3.77595 13.8535 3.55555C14.2686 2.88415 18.1572 3.10893 20.7821 3.95704C23.8201 4.93817 26.7188 7.34511 28.4893 10.3569C29.6414 12.3168 29.821 13.1455 29.821 16.5059C29.821 18.6419 29.6438 21.0265 29.4273 21.8047C29.0467 23.1742 29.7957 23.9835 52.4869 46.7121C74.697 68.9586 76.0175 70.1902 77.3967 69.9431C84.3161 68.7047 87.7076 69.362 91.466 72.6705C94.656 75.4784 96.0765 78.6505 96.0823 82.9794L96.0872 86.3427L92.02 82.3726C89.7829 80.1894 87.6673 78.4029 87.3187 78.4029C86.0725 78.4029 80.7833 80.0093 80.1658 80.5758C79.4789 81.205 78.14 85.7601 78.1308 87.4976C78.1269 88.205 79.3988 89.8555 81.7868 92.2436C83.8005 94.2578 85.3171 96.118 85.1564 96.3783C84.702 97.1133 80.9251 96.9351 78.1827 96.0491C75.1762 95.0782 72.2464 92.6644 70.5395 89.7512C69.0088 87.1398 68.4933 82.4769 69.3564 79.0495L69.9404 76.7305L66.3203 73.1914C63.9221 70.8471 62.4487 69.7494 61.9545 69.9388C60.3146 70.5679 60.6709 71.7025 63.4104 74.5745L66.1708 77.4684L66.2009 82.6692C66.2281 87.3884 66.3562 88.1069 67.5825 90.4347C70.3973 95.7763 75.4413 99.1746 81.2479 99.6406C84.738 99.9207 89.4965 98.7643 89.9742 97.5206C90.1888 96.9613 88.9212 95.35 85.6332 92.0037L80.9897 87.2772L81.5572 85.0222C82.0888 82.9114 82.2684 82.7245 84.3729 82.0905L86.6206 81.4133L91.2893 86.0242C94.3628 89.0598 96.2542 90.5779 96.8241 90.4663C98.2451 90.1881 99.0806 86.9083 98.9073 82.2866C98.7878 79.1141 98.4781 77.6019 97.5664 75.7454C95.0716 70.6646 89.6072 66.8954 84.0433 66.4172C82.5237 66.2866 80.376 66.3891 79.2706 66.6449L77.2603 67.1099L67.867 57.7074L58.4737 48.3044L66.5999 40.1675C71.0696 35.692 74.7267 31.7864 74.7267 31.4883C74.7267 31.1898 74.3849 30.6626 73.9674 30.316C73.3115 29.7717 72.0697 30.8228 64.8494 38.0349L56.4901 46.3834L54.8254 44.6664L53.1613 42.9488L66.7801 29.2421C79.9318 16.0049 80.4367 15.4267 81.5052 12.3794C82.1135 10.6439 82.8461 8.93161 83.1335 8.57431C83.4204 8.217 85.5472 6.97423 87.86 5.8125L92.0651 3.70071L93.9351 5.61635L95.8056 7.53202L93.4142 12.0692L91.0228 16.6069L87.3653 17.9433C84.1826 19.106 83.1913 19.7881 79.7304 23.1946C76.4103 26.4628 75.8311 27.2565 76.2277 27.9978C76.4889 28.4857 76.9525 28.8853 77.2574 28.8853C77.5628 28.8853 79.4668 27.2847 81.4882 25.3288C84.752 22.1713 85.6137 21.6174 89.1746 20.3882L93.1851 19.0041L96.0925 13.3013C97.6917 10.1647 99 7.30239 99 6.94072C99 6.57904 97.5718 4.86924 95.8255 3.14146L92.6516 0L86.6051 3.15553L80.5586 6.31107L79.0614 10.4783L77.5642 14.6461L64.3687 27.8347L51.1733 41.0234L41.9834 31.8238L32.7935 22.6247L32.7605 17.3807C32.7318 12.8231 32.5707 11.8187 31.5284 9.70934C29.9176 6.44748 26.7179 3.34827 23.389 1.82391C20.0019 0.273327 14.8798 -0.0937086 11.5466 0.975289Z" fill="#4FB2F6"/>
</svg>
