<svg width="99" height="100" viewBox="0 0 99 100" fill="none" xmlns="http://www.w3.org/2000/svg">
<path d="M46.94 41.2746C49.7801 38.167 52.3285 36.5521 56.0287 35.5142C57.8228 35.011 59.8323 34.8507 62.2773 35.0159C69.0311 35.4717 75.006 39.5052 78.0194 45.6432C79.3291 48.3105 79.4393 48.946 79.4393 53.8468C79.4393 58.8794 79.3586 59.3116 77.9103 62.0566C75.9419 65.7868 72.472 69.1397 68.8148 70.8459C66.2195 72.0571 65.3879 72.1982 60.8464 72.1982C56.3711 72.1982 55.4555 72.048 53.0485 70.9193C50.0698 69.5232 45.1657 65.1517 45.4892 64.1815C45.6008 63.8473 46.0547 63.3455 46.4981 63.0654C47.1524 62.653 47.7411 62.9843 49.6086 64.8151C50.8754 66.0572 53.1075 67.6267 54.5683 68.3028C56.6333 69.259 57.9995 69.5338 60.7073 69.5372C65.5642 69.544 69.0432 68.1691 72.2267 64.9856C73.9285 63.2837 75.0426 61.6084 75.7897 59.627C76.6822 57.2606 76.8401 56.0528 76.6711 52.8809C76.5156 49.9635 76.1597 48.4215 75.2184 46.5835C73.6982 43.6149 70.294 40.3885 67.2308 39.0126C65.5579 38.2616 63.9203 37.9786 61.0777 37.9497C57.6349 37.9144 56.8473 38.0858 53.9961 39.4897C52.2314 40.358 50.0848 41.8696 49.2257 42.848C48.3665 43.8265 47.0984 45.8321 46.4073 47.305C45.3415 49.5777 45.1661 50.5682 45.2487 53.8468C45.3023 55.9717 45.411 58.2535 45.4902 58.9176C45.6008 59.8462 45.3907 60.1596 44.5804 60.2751C42.8978 60.5146 42.2724 58.7548 42.2971 53.8468C42.3251 48.2897 43.543 44.9918 46.94 41.2746Z" fill="#4FB2F6"/>
<path fill-rule="evenodd" clip-rule="evenodd" d="M11.3711 27.6995C10.2353 28.8358 10.1387 29.2671 10.1387 33.216C10.1387 37.0698 10.2512 37.6058 11.2562 38.5504C12.2279 39.4627 12.9262 39.6003 16.5906 39.6003C20.4237 39.6003 20.9148 39.4926 21.9922 38.4147C23.0639 37.3436 23.1778 36.837 23.1778 33.1561C23.1778 29.8659 23.0006 28.8638 22.2549 27.9429C21.4311 26.9248 20.8646 26.7848 16.9678 26.6346C12.8248 26.4752 12.5413 26.5293 11.3711 27.6995ZM20.3227 36.7027L20.1808 33.2015L20.0388 29.7002L16.8794 29.5597C15.1414 29.4824 13.5661 29.5732 13.3782 29.7611C13.1899 29.949 13.0363 31.5875 13.0363 33.4029V36.7027H16.6795H20.3227Z" fill="#4FB2F6"/>
<path fill-rule="evenodd" clip-rule="evenodd" d="M10.8906 48.4008C10.3488 49.1739 10.1387 50.658 10.1387 53.713C10.1387 57.3079 10.2855 58.0985 11.1046 58.9176C11.9338 59.7467 12.7142 59.8834 16.623 59.8834C21.0143 59.8834 21.2133 59.8361 22.2207 58.5554C23.1474 57.3775 23.2464 56.7473 23.1006 52.9625C22.8895 47.4822 22.7036 47.3272 16.3521 47.3272C12.0328 47.3272 11.5798 47.4161 10.8906 48.4008ZM20.2802 56.9858V53.6053V50.2248H16.6583H13.0363V53.6053V56.9858H16.6583H20.2802Z" fill="#4FB2F6"/>
<path fill-rule="evenodd" clip-rule="evenodd" d="M10.8906 69.1668C10.3488 69.94 10.1387 71.424 10.1387 74.479C10.1387 78.074 10.2855 78.8645 11.1046 79.6836C11.9338 80.5128 12.7142 80.6494 16.623 80.6494C20.9665 80.6494 21.222 80.591 22.1767 79.3769C22.9856 78.3487 23.1778 77.4153 23.1778 74.5157C23.1778 71.0739 22.6761 69.2243 21.5359 68.4627C21.2437 68.2676 18.8981 68.1048 16.3236 68.1005C12.0289 68.0937 11.5802 68.1821 10.8906 69.1668ZM20.2802 77.7519V74.3713V70.9908H16.6583H13.0363V74.3713V77.7519H16.6583H20.2802Z" fill="#4FB2F6"/>
<path fill-rule="evenodd" clip-rule="evenodd" d="M65.6757 45.7316C65.2773 45.8746 63.7488 47.1621 62.2798 48.5925L59.6082 51.1936L57.732 50.2374C55.6197 49.1604 53.9473 49.3372 52.3232 50.8091C51.0671 51.9484 50.6392 53.8477 51.2646 55.5124C51.8349 57.0327 55.3183 60.686 57.0796 61.6123C58.6578 62.442 60.2461 62.4647 61.6539 61.6775C62.2305 61.3549 64.6756 58.9726 67.0868 56.3836C70.6156 52.595 71.4709 51.3906 71.4709 50.2093C71.4709 48.2443 70.2848 46.5473 68.4695 45.9146C66.8546 45.3515 66.7532 45.3448 65.6757 45.7316ZM59.3571 59.4005C60.3978 59.4005 68.5733 51.1607 68.5733 50.1113C68.5733 49.6612 68.1174 49.0489 67.5596 48.7504C66.6541 48.266 66.1968 48.5732 63.2693 51.6311C61.467 53.5135 59.6792 55.0541 59.2962 55.0541C58.9133 55.0541 58.0899 54.5108 57.4659 53.8468C56.1895 52.4878 54.3365 52.2536 53.8985 53.3957C53.7087 53.8902 54.4684 55.0614 56.09 56.7762C57.4553 58.2197 58.9253 59.4005 59.3571 59.4005Z" fill="#4FB2F6"/>
<path fill-rule="evenodd" clip-rule="evenodd" d="M0.50423 3.26413C0.824896 2.10944 1.47782 1.20105 2.3128 0.748065C3.41292 0.15068 7.61779 0.035741 28.9595 0.0193214L54.2993 0L63.6097 9.30995L72.9197 18.6204V24.9014V31.1824L74.4892 32.1043C76.857 33.4956 80.9194 37.4986 82.5624 40.0586C84.255 42.6959 85.9588 47.3494 85.9588 49.3348C85.9588 50.4668 85.7531 50.7077 84.7858 50.7077C83.774 50.7077 83.5022 50.3281 82.8096 47.9454C81.7728 44.3789 80.6818 42.2738 78.3213 39.2879C76.2823 36.708 72.5164 33.9838 69.2045 32.693C63.6402 30.5232 56.7594 30.7637 51.2902 33.3188C47.0341 35.3071 42.8756 39.41 40.7922 43.6758C36.8617 51.7257 37.7889 60.8309 43.2446 67.7615C47.3113 72.9274 54.2742 76.3151 60.7764 76.2915C67.3597 76.2668 72.1272 74.2723 76.8184 69.5787C80.4718 65.9234 82.3407 62.4666 83.2105 57.7547C83.8586 54.2433 84.8693 53.0171 85.9965 54.3746C86.4939 54.9744 86.5137 55.7785 86.0921 58.2395C85.7995 59.9486 84.8829 62.794 84.0556 64.562L82.5508 67.7774L84.1102 69.386C85.1774 70.4876 85.9501 70.9053 86.5601 70.7117C87.2212 70.5021 88.5835 71.5298 91.839 74.6939C94.2517 77.04 96.8499 79.8067 97.6119 80.8426C98.7391 82.3745 98.9979 83.2186 98.9979 85.3667C98.9979 87.7901 98.8439 88.1614 97.1232 89.8821C95.4291 91.5762 95.0075 91.7568 92.7527 91.7568C91.3802 91.7568 89.6706 91.4497 88.953 91.0744C88.2358 90.6992 85.431 88.1329 82.7203 85.371C79.0322 81.6138 77.8533 80.1134 78.0368 79.4112C78.2039 78.7732 77.7504 77.9576 76.6185 76.8604C75.1885 75.4748 74.8118 75.3246 73.9372 75.7926C72.953 76.319 72.9197 76.6633 72.9197 86.2572V96.1776L71.5081 97.5892L70.0965 99.0008H36.9544C35.5249 99.0008 34.1528 99.001 32.8359 99.0012C6.08347 99.0052 2.06678 99.0058 1.0026 97.2335C0.814587 96.9204 0.718733 96.5519 0.605943 96.1184C0.574469 95.9974 0.541677 95.8714 0.505195 95.7401C0.177768 94.5612 0.0014959 81.4395 4.71096e-05 58.1067C-0.00236754 26.6042 0.0860137 22.1945 0.735556 21.5455C1.33729 20.9437 2.15199 20.8993 3.00774 21.4214C3.07004 21.4595 3.23327 38.224 3.36994 58.6761L3.61913 95.8618H36.6999H69.7806L69.912 86.7508C70.0356 78.2029 69.9912 77.6606 69.189 77.9682C66.4731 79.0104 62.3512 79.2089 45.8756 79.09L27.7657 78.9592V77.7519V76.5445L38.0275 76.3031L48.2893 76.0616L45.8505 74.2506L43.4121 72.4396H36.2319C32.283 72.4396 28.7084 72.3078 28.2882 72.1465C27.8681 71.9852 27.5242 71.3332 27.5242 70.6977V69.542H34.0346H40.545L38.8596 66.4754C37.9323 64.7885 36.8438 62.2981 36.441 60.941L35.708 58.4732L31.7368 58.3332C27.8603 58.1965 27.7657 58.1642 27.7657 56.9858C27.7657 55.8142 27.8758 55.7742 31.5084 55.6375L35.2511 55.4965V53.585V51.6736H32.1516C30.4469 51.6736 28.7084 51.5418 28.2882 51.3805C27.8681 51.2192 27.5242 50.5759 27.5242 49.9505C27.5242 48.8562 27.6787 48.8084 31.6518 48.6741L35.7799 48.5345L36.8786 45.3955C37.4827 43.669 38.5577 41.3394 39.2672 40.218L40.5575 38.1795L34.1616 38.0448L27.7657 37.9101V36.7027V35.4954L35.4617 35.3621L43.1581 35.2283L45.1203 33.7685C46.1996 32.9653 47.5175 32 48.0488 31.6233C48.8949 31.0235 47.6808 30.9366 38.2694 30.923L27.5242 30.9076V29.7094C27.5242 28.8464 27.8492 28.4296 28.6876 28.2196C29.327 28.0588 37.857 28.0163 47.6426 28.1244C62.1754 28.2857 65.8544 28.4615 67.7282 29.0845L70.0221 29.847V25.3065V20.766H62.272H54.5224L53.3378 19.4882C52.1846 18.2432 52.1537 18.0119 52.1537 10.5496V2.88889L27.8864 3.01397L3.61913 3.13905L3.33179 10.383C3.17387 14.3672 3.01064 17.6815 2.96959 17.7477C2.92854 17.8139 2.37655 17.8684 1.74391 17.8684C0.958185 17.8684 0.500367 17.5231 0.3014 16.7818C-0.180565 14.9834 -0.0337549 5.20117 0.50423 3.26413ZM91.6241 78.8288C95.6904 82.8781 96.1004 83.4533 96.1004 85.1069C96.1004 87.5201 94.7612 88.8593 92.348 88.8593C90.6911 88.8593 90.1173 88.4473 85.9622 84.2748L81.397 79.6908L84.0237 77.0308C85.4682 75.568 86.7624 74.3713 86.8991 74.3713C87.0362 74.3713 89.1621 76.3774 91.6241 78.8288ZM55.6829 17.6584C56.0306 17.7917 58.8596 17.839 61.9697 17.7636L67.6244 17.627L61.338 11.3556L55.0513 5.08477V11.2503C55.0513 15.8836 55.2082 17.4763 55.6829 17.6584Z" fill="#4FB2F6"/>
</svg>
