<svg width="40" height="40" viewBox="0 0 40 40" fill="none" xmlns="http://www.w3.org/2000/svg">
<path d="M31.4134 14.2598C31.2793 13.7624 31.0173 13.3087 30.6534 12.944C30.2895 12.5793 29.8365 12.3162 29.3393 12.181C27.4959 11.6749 20.1212 11.6666 20.1212 11.6666C20.1212 11.6666 12.7477 11.6584 10.9032 12.1422C10.4063 12.2836 9.95419 12.5504 9.59016 12.9169C9.22612 13.2834 8.96242 13.7373 8.82436 14.2351C8.33821 16.0785 8.3335 19.9018 8.3335 19.9018C8.3335 19.9018 8.32879 23.7439 8.81141 25.5685C9.08215 26.5773 9.87671 27.3742 10.8867 27.6461C12.7489 28.1523 20.1036 28.1605 20.1036 28.1605C20.1036 28.1605 27.4783 28.1688 29.3217 27.6861C29.819 27.5512 30.2725 27.2887 30.6373 26.9248C31.0021 26.5608 31.2655 26.1079 31.4016 25.6109C31.889 23.7687 31.8925 19.9465 31.8925 19.9465C31.8925 19.9465 31.916 16.1032 31.4134 14.2598ZM17.7623 23.4438L17.7682 16.381L23.8975 19.9183L17.7623 23.4438Z" fill="white"/>
</svg>
